<svg width="21" height="57" viewBox="0 0 21 57" fill="none" xmlns="http://www.w3.org/2000/svg">
<path id="Arrow 9" d="M10.406 28.3058L11.9059 28.2956L10.406 28.3058ZM4.58418 55.1528C4.83854 55.9413 5.68387 56.3742 6.47228 56.1198L19.3202 51.9749C20.1086 51.7205 20.5416 50.8752 20.2872 50.0868C20.0329 49.2984 19.1875 48.8654 18.3991 49.1198L6.97873 52.8042L3.29432 41.3838C3.03997 40.5954 2.19464 40.1625 1.40622 40.4168C0.617811 40.6712 0.184872 41.5165 0.439226 42.3049L4.58418 55.1528ZM5.28703 1.06422C3.95457 1.7531 3.95435 1.75267 3.95414 1.75226C3.95409 1.75218 3.95391 1.75181 3.95382 1.75164C3.95364 1.7513 3.95354 1.7511 3.95352 1.75106C3.95347 1.75096 3.95372 1.75145 3.95426 1.75252C3.95536 1.75467 3.95764 1.75915 3.96106 1.76597C3.96791 1.7796 3.97935 1.80256 3.99508 1.8348C4.02653 1.89927 4.07513 2.00083 4.13849 2.13905C4.26522 2.4155 4.45094 2.83855 4.67651 3.40475C5.12768 4.53719 5.73816 6.24204 6.35489 8.4919C7.58817 12.9909 8.84701 19.6714 8.906 28.316L11.9059 28.2956C11.845 19.3678 10.5444 12.4274 9.24816 7.6988C8.60015 5.33481 7.95338 3.5241 7.46348 2.29443C7.21852 1.67958 7.01276 1.20994 6.86563 0.888965C6.79206 0.728474 6.73315 0.60514 6.69132 0.519394C6.6704 0.47652 6.65375 0.443042 6.64168 0.419014C6.63564 0.407 6.63075 0.397348 6.62704 0.390065C6.62518 0.386423 6.62362 0.383374 6.62236 0.380917C6.62173 0.379689 6.62117 0.378609 6.62069 0.377678C6.62045 0.377212 6.62015 0.376625 6.62003 0.376392C6.61975 0.375842 6.61948 0.375329 5.28703 1.06422ZM8.906 28.316C8.96506 36.9706 7.88297 43.4401 6.79966 47.7207C6.25787 49.8615 5.71539 51.4563 5.31429 52.5044C5.11372 53.0284 4.94847 53.4159 4.83628 53.6666C4.78019 53.792 4.73736 53.8831 4.71001 53.9401C4.69634 53.9686 4.68654 53.9886 4.68088 54C4.67806 54.0057 4.67627 54.0092 4.67555 54.0107C4.67519 54.0114 4.6751 54.0116 4.67528 54.0112C4.67537 54.011 4.67553 54.0107 4.67576 54.0103C4.67587 54.01 4.67609 54.0096 4.67615 54.0095C4.67639 54.009 4.67664 54.0085 6.01173 54.6923C7.34682 55.3761 7.34711 55.3755 7.34742 55.3749C7.34754 55.3746 7.34787 55.374 7.34812 55.3735C7.34862 55.3725 7.34919 55.3714 7.34983 55.3702C7.3511 55.3677 7.35265 55.3646 7.35445 55.361C7.35808 55.3538 7.36276 55.3445 7.36847 55.333C7.37989 55.31 7.39542 55.2783 7.41478 55.2379C7.4535 55.1572 7.50754 55.0419 7.57464 54.8919C7.70886 54.592 7.89534 54.1535 8.1161 53.5767C8.55765 52.423 9.13622 50.716 9.70797 48.4567C10.8518 43.9371 11.9668 37.2135 11.9059 28.2956L8.906 28.316Z" fill="#909FAD"/>
</svg>
