<svg width="21" height="56" viewBox="0 0 21 56" fill="none" xmlns="http://www.w3.org/2000/svg">
<path id="Arrow 10" d="M10.3597 27.9425L8.85969 27.9323L10.3597 27.9425ZM16.1814 54.7896C15.9271 55.578 15.0818 56.0109 14.2933 55.7566L1.44541 51.6116C0.656999 51.3573 0.22406 50.5119 0.478415 49.7235C0.732771 48.9351 1.5781 48.5022 2.36651 48.7565L13.7869 52.4409L17.4713 41.0205C17.7257 40.2321 18.571 39.7992 19.3594 40.0535C20.1478 40.3079 20.5808 41.1532 20.3264 41.9416L16.1814 54.7896ZM15.4786 0.700935C16.8111 1.38982 16.8113 1.38938 16.8115 1.38898C16.8115 1.3889 16.8117 1.38853 16.8118 1.38836C16.812 1.38802 16.8121 1.38782 16.8121 1.38777C16.8122 1.38768 16.8119 1.38816 16.8114 1.38924C16.8103 1.39138 16.808 1.39587 16.8046 1.40269C16.7977 1.41632 16.7863 1.43928 16.7705 1.47152C16.7391 1.53599 16.6905 1.63755 16.6271 1.77577C16.5004 2.05222 16.3147 2.47527 16.0891 3.04147C15.6379 4.1739 15.0275 5.87876 14.4107 8.12862C13.1775 12.6276 11.9186 19.3081 11.8596 27.9528L8.85969 27.9323C8.92062 19.0045 10.2212 12.0642 11.5175 7.33551C12.1655 4.97153 12.8122 3.16082 13.3021 1.93115C13.5471 1.3163 13.7529 0.846658 13.9 0.525684C13.9736 0.365193 14.0325 0.241859 14.0743 0.156113C14.0952 0.113239 14.1119 0.0797611 14.1239 0.0557327C14.13 0.0437185 14.1349 0.0340665 14.1386 0.0267833C14.1404 0.0231418 14.142 0.0200925 14.1433 0.0176362C14.1439 0.0164081 14.1445 0.0153281 14.1449 0.0143967C14.1452 0.013931 14.1455 0.0133434 14.1456 0.0131107C14.1459 0.0125605 14.1461 0.0120473 15.4786 0.700935ZM11.8596 27.9528C11.8006 36.6073 12.8827 43.0769 13.966 47.3574C14.5078 49.4983 15.0502 51.093 15.4513 52.1411C15.6519 52.6652 15.8172 53.0526 15.9293 53.3033C15.9854 53.4287 16.0283 53.5199 16.0556 53.5768C16.0693 53.6053 16.0791 53.6253 16.0847 53.6367C16.0876 53.6424 16.0894 53.646 16.0901 53.6474C16.0904 53.6481 16.0905 53.6483 16.0903 53.6479C16.0903 53.6477 16.0901 53.6474 16.0899 53.647C16.0898 53.6468 16.0895 53.6463 16.0895 53.6462C16.0892 53.6457 16.089 53.6452 14.7539 54.329C13.4188 55.0128 13.4185 55.0122 13.4182 55.0116C13.4181 55.0114 13.4178 55.0107 13.4175 55.0102C13.417 55.0093 13.4164 55.0081 13.4158 55.0069C13.4145 55.0044 13.413 55.0013 13.4112 54.9977C13.4075 54.9906 13.4029 54.9812 13.3972 54.9697C13.3857 54.9467 13.3702 54.915 13.3508 54.8746C13.3121 54.7939 13.2581 54.6786 13.191 54.5286C13.0568 54.2287 12.8703 53.7902 12.6495 53.2134C12.208 52.0597 11.6294 50.3527 11.0577 48.0934C9.91386 43.5739 8.79884 36.8502 8.85969 27.9323L11.8596 27.9528Z" fill="#909FAD"/>
</svg>
