<svg width="22" height="24" viewBox="0 0 22 24" fill="none" xmlns="http://www.w3.org/2000/svg">
<g id="Group 1">
<path id="Vector" d="M8.88806 10.0664C8.20406 10.0664 7.66406 10.6664 7.66406 11.3984C7.66406 12.1304 8.21606 12.7304 8.88806 12.7304C9.57206 12.7304 10.1121 12.1304 10.1121 11.3984C10.1241 10.6664 9.57206 10.0664 8.88806 10.0664ZM13.2681 10.0664C12.5841 10.0664 12.0441 10.6664 12.0441 11.3984C12.0441 12.1304 12.5961 12.7304 13.2681 12.7304C13.9521 12.7304 14.4921 12.1304 14.4921 11.3984C14.4921 10.6664 13.9521 10.0664 13.2681 10.0664Z" fill="white"/>
<path id="Vector_2" d="M19.0986 0H3.01859C1.66259 0 0.558594 1.104 0.558594 2.472V18.696C0.558594 20.064 1.66259 21.168 3.01859 21.168H16.6266L15.9906 18.948L17.5266 20.376L18.9786 21.72L21.5586 24V2.472C21.5586 1.104 20.4546 0 19.0986 0ZM14.4666 15.672C14.4666 15.672 14.0346 15.156 13.6746 14.7C15.2466 14.256 15.8466 13.272 15.8466 13.272C15.3546 13.596 14.8866 13.824 14.4666 13.98C13.8666 14.232 13.2906 14.4 12.7266 14.496C11.5746 14.712 10.5186 14.652 9.61859 14.484C8.93459 14.352 8.34659 14.16 7.85459 13.968C7.57859 13.86 7.27859 13.728 6.97859 13.56C6.94259 13.536 6.90659 13.524 6.87059 13.5C6.84659 13.488 6.83459 13.476 6.82259 13.464C6.60659 13.344 6.48659 13.26 6.48659 13.26C6.48659 13.26 7.06259 14.22 8.58659 14.676C8.22659 15.132 7.78259 15.672 7.78259 15.672C5.13059 15.588 4.12259 13.848 4.12259 13.848C4.12259 9.984 5.85059 6.852 5.85059 6.852C7.57859 5.556 9.22259 5.592 9.22259 5.592L9.34259 5.736C7.18259 6.36 6.18659 7.308 6.18659 7.308C6.18659 7.308 6.45059 7.164 6.89459 6.96C8.17859 6.396 9.19859 6.24 9.61859 6.204C9.69059 6.192 9.75059 6.18 9.82259 6.18C10.5546 6.084 11.3826 6.06 12.2466 6.156C13.3866 6.288 14.6106 6.624 15.8586 7.308C15.8586 7.308 14.9106 6.408 12.8706 5.784L13.0386 5.592C13.0386 5.592 14.6826 5.556 16.4106 6.852C16.4106 6.852 18.1386 9.984 18.1386 13.848C18.1386 13.848 17.1186 15.588 14.4666 15.672Z" fill="white"/>
</g>
</svg>
