<svg width="25" height="24" viewBox="0 0 25 24" fill="none" xmlns="http://www.w3.org/2000/svg">
<path d="M10.4115 10.0664C9.7275 10.0664 9.1875 10.6664 9.1875 11.3984C9.1875 12.1304 9.7395 12.7304 10.4115 12.7304C11.0955 12.7304 11.6355 12.1304 11.6355 11.3984C11.6475 10.6664 11.0955 10.0664 10.4115 10.0664ZM14.7915 10.0664C14.1075 10.0664 13.5675 10.6664 13.5675 11.3984C13.5675 12.1304 14.1195 12.7304 14.7915 12.7304C15.4755 12.7304 16.0155 12.1304 16.0155 11.3984C16.0155 10.6664 15.4755 10.0664 14.7915 10.0664Z" fill="#080908"/>
<path d="M20.622 0H4.54203C3.18603 0 2.08203 1.104 2.08203 2.472V18.696C2.08203 20.064 3.18603 21.168 4.54203 21.168H18.15L17.514 18.948L19.05 20.376L20.502 21.72L23.082 24V2.472C23.082 1.104 21.978 0 20.622 0ZM15.99 15.672C15.99 15.672 15.558 15.156 15.198 14.7C16.77 14.256 17.37 13.272 17.37 13.272C16.878 13.596 16.41 13.824 15.99 13.98C15.39 14.232 14.814 14.4 14.25 14.496C13.098 14.712 12.042 14.652 11.142 14.484C10.458 14.352 9.87003 14.16 9.37803 13.968C9.10203 13.86 8.80203 13.728 8.50203 13.56C8.46603 13.536 8.43003 13.524 8.39403 13.5C8.37003 13.488 8.35803 13.476 8.34603 13.464C8.13003 13.344 8.01003 13.26 8.01003 13.26C8.01003 13.26 8.58603 14.22 10.11 14.676C9.75003 15.132 9.30603 15.672 9.30603 15.672C6.65403 15.588 5.64603 13.848 5.64603 13.848C5.64603 9.984 7.37403 6.852 7.37403 6.852C9.10203 5.556 10.746 5.592 10.746 5.592L10.866 5.736C8.70603 6.36 7.71003 7.308 7.71003 7.308C7.71003 7.308 7.97403 7.164 8.41803 6.96C9.70203 6.396 10.722 6.24 11.142 6.204C11.214 6.192 11.274 6.18 11.346 6.18C12.078 6.084 12.906 6.06 13.77 6.156C14.91 6.288 16.134 6.624 17.382 7.308C17.382 7.308 16.434 6.408 14.394 5.784L14.562 5.592C14.562 5.592 16.206 5.556 17.934 6.852C17.934 6.852 19.662 9.984 19.662 13.848C19.662 13.848 18.642 15.588 15.99 15.672Z" fill="#080908"/>
</svg>
