<svg width="166" height="68" viewBox="0 0 166 68" fill="none" xmlns="http://www.w3.org/2000/svg">
<path fill-rule="evenodd" clip-rule="evenodd" d="M64.3318 21.2917C57.1806 8.89448 43.5523 6.98526 34.6288 7.23303C19.095 7.66433 6.05609 21.6177 6.45284 35.7366C6.64117 42.4385 7.47893 48.2657 9.88276 53.5808V31.7072C9.88276 31.0235 10.1849 30.3743 10.7091 29.9316L10.7142 29.9273L27.1082 16.1887L27.1115 16.1859C27.7495 15.6492 28.6262 15.4911 29.4124 15.7695L38.8134 18.9815L38.8323 18.9884C40.5199 19.6078 40.9055 21.808 39.528 22.9581L39.5223 22.9629L23.9201 35.8803V60.0121L31.8345 63.0403V39.6768C31.8345 38.995 32.1349 38.3474 32.6566 37.9047L48.9058 24.2199L48.9098 24.2166C49.5623 23.6654 50.465 23.5119 51.2643 23.8155L68.8574 30.3633L68.8688 30.3677C69.7462 30.708 70.3607 31.5484 70.3607 32.5318V57.793C70.3607 59.44 68.7008 60.5456 67.1785 59.9661L67.1655 59.9612L57.4783 56.0995C56.5671 55.7362 56.1247 54.7076 56.4901 53.8018C56.8555 52.8961 57.8904 52.4563 58.8016 52.8196L66.8056 56.0103V33.3731L50.6684 27.3672L35.3896 40.2347V64.7938C35.3896 66.4098 33.7749 67.5351 32.2466 66.9842L32.2302 66.9783L21.8883 63.0213C20.9729 62.6813 20.365 61.8117 20.365 60.8388V35.3162C20.365 34.6279 20.6711 33.9748 21.2013 33.5322L21.207 33.5274L35.5922 21.6177L28.8814 19.3248L13.4379 32.2669V56.9181C13.4379 58.9407 10.9178 60.0997 9.41819 58.5078C3.79404 52.5374 0.260372 44.6107 0.0137755 35.8353C-0.527486 16.5739 14.9489 0.557872 34.5296 0.0142098C48.9704 -0.386745 61.6446 7.73403 67.5281 19.7447C67.9579 20.622 67.5908 21.6796 66.7082 22.1068C65.8255 22.534 64.82 22.138 64.3318 21.2917Z" fill="black"/>
<path d="M86.3616 55.8033V36.0938H90.5286V52.3676H98.9783V55.8033H86.3616Z" fill="#080908"/>
<path d="M101.661 55.8033V41.0212H105.761V55.8033H101.661ZM103.72 39.1157C103.111 39.1157 102.588 38.9136 102.152 38.5094C101.722 38.0988 101.507 37.608 101.507 37.037C101.507 36.4724 101.722 35.988 102.152 35.5838C102.588 35.1732 103.111 34.9678 103.72 34.9678C104.33 34.9678 104.85 35.1732 105.28 35.5838C105.716 35.988 105.934 36.4724 105.934 37.037C105.934 37.608 105.716 38.0988 105.28 38.5094C104.85 38.9136 104.33 39.1157 103.72 39.1157Z" fill="#080908"/>
<path d="M109.122 55.8033V36.0938H113.222V43.5041H113.347C113.526 43.1064 113.786 42.7022 114.126 42.2915C114.473 41.8745 114.922 41.5281 115.473 41.2522C116.032 40.9699 116.725 40.8287 117.552 40.8287C118.63 40.8287 119.625 41.111 120.536 41.6756C121.447 42.2338 122.175 43.0775 122.72 44.2067C123.266 45.3295 123.538 46.7377 123.538 48.4315C123.538 50.0804 123.272 51.4726 122.739 52.6082C122.213 53.7374 121.495 54.5939 120.584 55.1778C119.679 55.7552 118.665 56.0439 117.543 56.0439C116.747 56.0439 116.07 55.9124 115.512 55.6493C114.96 55.3863 114.508 55.0559 114.155 54.6581C113.802 54.2539 113.533 53.8465 113.347 53.4359H113.164V55.8033H109.122ZM113.135 48.4123C113.135 49.2912 113.257 50.0579 113.501 50.7124C113.744 51.3668 114.097 51.8768 114.559 52.2425C115.021 52.6018 115.583 52.7815 116.243 52.7815C116.911 52.7815 117.475 52.5986 117.937 52.2329C118.399 51.8608 118.749 51.3475 118.986 50.6931C119.23 50.0323 119.352 49.272 119.352 48.4123C119.352 47.559 119.233 46.8083 118.996 46.1603C118.758 45.5123 118.409 45.0055 117.947 44.6397C117.485 44.274 116.917 44.0912 116.243 44.0912C115.576 44.0912 115.012 44.2676 114.55 44.6205C114.094 44.9734 113.744 45.4738 113.501 46.1218C113.257 46.7698 113.135 47.5333 113.135 48.4123Z" fill="#080908"/>
<path d="M133.01 56.092C131.49 56.092 130.181 55.7841 129.084 55.1682C127.993 54.5458 127.153 53.6668 126.562 52.5312C125.972 51.3892 125.677 50.0387 125.677 48.4796C125.677 46.9591 125.972 45.6246 126.562 44.4761C127.153 43.3277 127.984 42.4327 129.055 41.7911C130.133 41.1495 131.397 40.8287 132.847 40.8287C133.822 40.8287 134.73 40.9859 135.57 41.3003C136.417 41.6083 137.155 42.0734 137.784 42.6957C138.419 43.3181 138.913 44.1008 139.266 45.0439C139.619 45.9807 139.795 47.0778 139.795 48.3353V49.4613H129.729L129.733 46.9206H135.936C135.936 46.3303 135.808 45.8074 135.551 45.3519C135.294 44.8964 134.938 44.5403 134.483 44.2837C134.034 44.0206 133.511 43.8891 132.914 43.8891C132.292 43.8891 131.74 44.0334 131.259 44.3222C130.784 44.6045 130.412 44.9862 130.143 45.4674C129.873 45.9422 129.735 46.4715 129.729 47.0553V49.4709C129.729 50.2023 129.863 50.8343 130.133 51.3668C130.409 51.8993 130.797 52.3099 131.297 52.5986C131.798 52.8873 132.391 53.0317 133.078 53.0317C133.533 53.0317 133.95 52.9675 134.329 52.8392C134.707 52.7109 135.031 52.5184 135.301 52.2618C135.57 52.0051 135.776 51.6908 135.917 51.3186L139.709 51.5689C139.516 52.4799 139.122 53.2755 138.525 53.9556C137.935 54.6292 137.171 55.1553 136.234 55.5339C135.304 55.906 134.229 56.092 133.01 56.092Z" fill="#080908"/>
<path d="M146.57 36.0938V55.8033H142.471V36.0938H146.57Z" fill="#080908"/>
<path d="M149.854 55.8033V41.0212H153.954V55.8033H149.854ZM151.914 39.1157C151.304 39.1157 150.782 38.9136 150.345 38.5094C149.915 38.0988 149.7 37.608 149.7 37.037C149.7 36.4724 149.915 35.988 150.345 35.5838C150.782 35.1732 151.304 34.9678 151.914 34.9678C152.523 34.9678 153.043 35.1732 153.473 35.5838C153.909 35.988 154.127 36.4724 154.127 37.037C154.127 37.608 153.909 38.0988 153.473 38.5094C153.043 38.9136 152.523 39.1157 151.914 39.1157Z" fill="#080908"/>
<path d="M165.101 41.0212V44.1008H156.199V41.0212H158.22V44.1008H162.32V41.0212H165.101ZM158.22 37.4797H162.32V51.2609C162.32 51.6394 162.377 51.9346 162.493 52.1463C162.608 52.3516 162.769 52.496 162.974 52.5794C163.186 52.6628 163.43 52.7045 163.705 52.7045C163.898 52.7045 164.09 52.6884 164.283 52.6563C164.475 52.6179 164.623 52.589 164.726 52.5697L165.37 55.6205C165.165 55.6846 164.876 55.7584 164.504 55.8418C164.132 55.9316 163.68 55.9862 163.147 56.0054C162.159 56.0439 161.293 55.9124 160.549 55.6109C159.811 55.3093 159.237 54.841 158.826 54.2058C158.416 53.5706 158.213 52.7686 158.22 51.7998V37.4797Z" fill="#080908"/>
</svg>
