<svg width="76" height="23" viewBox="0 0 76 23" fill="none" xmlns="http://www.w3.org/2000/svg">
<path d="M4.53464 1.77977V22.2521H0.661499V1.77977H4.53464Z" fill="black"/>
<path d="M10.3256 5.09961C9.64314 5.09961 9.07139 4.88751 8.6103 4.46331C8.16766 4.02066 7.94634 3.47658 7.94634 2.83106C7.94634 2.18553 8.16766 1.65067 8.6103 1.22647C9.07139 0.783822 9.64314 0.5625 10.3256 0.5625C11.008 0.5625 11.5705 0.783822 12.0131 1.22647C12.4742 1.65067 12.7048 2.18553 12.7048 2.83106C12.7048 3.47658 12.4742 4.02066 12.0131 4.46331C11.5705 4.88751 11.008 5.09961 10.3256 5.09961ZM12.2345 6.92552V22.2521H8.36132V6.92552H12.2345Z" fill="black"/>
<path d="M19.9343 9.16641C20.4322 8.42867 21.1147 7.82925 21.9815 7.36816C22.8668 6.90708 23.872 6.67653 24.997 6.67653C26.3065 6.67653 27.4869 6.9993 28.5382 7.64482C29.6079 8.29034 30.4471 9.21252 31.0557 10.4113C31.6828 11.5917 31.9963 12.9658 31.9963 14.5335C31.9963 16.1012 31.6828 17.4937 31.0557 18.7109C30.4471 19.9098 29.6079 20.8412 28.5382 21.5051C27.4869 22.1691 26.3065 22.5011 24.997 22.5011C23.8535 22.5011 22.8484 22.2798 21.9815 21.8371C21.1331 21.376 20.4507 20.7858 19.9343 20.0665V22.2521H16.0611V1.77977H19.9343V9.16641ZM28.0402 14.5335C28.0402 13.6113 27.8466 12.8182 27.4592 12.1543C27.0904 11.4719 26.5924 10.9554 25.9653 10.605C25.3567 10.2546 24.6927 10.0794 23.9734 10.0794C23.2726 10.0794 22.6086 10.2638 21.9815 10.6327C21.3729 10.9831 20.8749 11.4995 20.4876 12.1819C20.1187 12.8643 19.9343 13.6666 19.9343 14.5888C19.9343 15.511 20.1187 16.3133 20.4876 16.9957C20.8749 17.6781 21.3729 18.2037 21.9815 18.5726C22.6086 18.923 23.2726 19.0983 23.9734 19.0983C24.6927 19.0983 25.3567 18.9138 25.9653 18.5449C26.5924 18.1761 27.0904 17.6504 27.4592 16.968C27.8466 16.2856 28.0402 15.4741 28.0402 14.5335Z" fill="black"/>
<path d="M49.0585 14.2568C49.0585 14.8101 49.0216 15.3081 48.9478 15.7508H37.7434C37.8356 16.8574 38.2229 17.7242 38.9053 18.3513C39.5877 18.9784 40.4269 19.2919 41.4229 19.2919C42.8615 19.2919 43.8851 18.6741 44.4937 17.4383H48.6712C48.2285 18.9138 47.3801 20.1311 46.126 21.0902C44.8718 22.0308 43.3318 22.5011 41.5059 22.5011C40.0304 22.5011 38.7024 22.1783 37.5221 21.5328C36.3601 20.8688 35.4472 19.9374 34.7832 18.7386C34.1377 17.5398 33.8149 16.1565 33.8149 14.5888C33.8149 13.0027 34.1377 11.6102 34.7832 10.4113C35.4287 9.21252 36.3325 8.29034 37.4944 7.64482C38.6563 6.9993 39.9935 6.67653 41.5059 6.67653C42.9629 6.67653 44.2632 6.99007 45.4067 7.61715C46.5686 8.24423 47.4631 9.13874 48.0902 10.3007C48.7357 11.4442 49.0585 12.7629 49.0585 14.2568ZM45.047 13.1502C45.0286 12.1543 44.6689 11.3612 43.9681 10.771C43.2672 10.1624 42.4096 9.85804 41.3952 9.85804C40.4361 9.85804 39.6246 10.1531 38.9607 10.7433C38.3151 11.3151 37.9186 12.1174 37.771 13.1502H45.047Z" fill="black"/>
<path d="M55.7587 1.77977V22.2521H51.8855V1.77977H55.7587Z" fill="black"/>
<path d="M61.5496 5.09961C60.8672 5.09961 60.2954 4.88751 59.8343 4.46331C59.3917 4.02066 59.1704 3.47658 59.1704 2.83106C59.1704 2.18553 59.3917 1.65067 59.8343 1.22647C60.2954 0.783822 60.8672 0.5625 61.5496 0.5625C62.232 0.5625 62.7945 0.783822 63.2372 1.22647C63.6983 1.65067 63.9288 2.18553 63.9288 2.83106C63.9288 3.47658 63.6983 4.02066 63.2372 4.46331C62.7945 4.88751 62.232 5.09961 61.5496 5.09961ZM63.4585 6.92552V22.2521H59.5854V6.92552H63.4585Z" fill="black"/>
<path d="M71.7946 10.107V17.5213C71.7946 18.0378 71.9145 18.4158 72.1543 18.6556C72.4125 18.8769 72.8367 18.9876 73.4269 18.9876H75.2251V22.2521H72.7906C69.5261 22.2521 67.8938 20.666 67.8938 17.4937V10.107H66.0679V6.92552H67.8938V3.13537H71.7946V6.92552H75.2251V10.107H71.7946Z" fill="black"/>
</svg>
