<svg width="105" height="48" viewBox="0 0 104 48" fill="none" xmlns="http://www.w3.org/2000/svg">
<path fill-rule="evenodd" clip-rule="evenodd" d="M45.7562 15.1423C41.9967 7.46845 33.8871 2.26531 24.6299 2.52231C12.067 2.87109 2.1923 13.136 2.5374 25.4152C2.67134 30.1814 4.32284 34.5549 7.02914 38.1056V22.5496C7.02914 22.0633 7.24402 21.6016 7.61687 21.2868L7.62053 21.2837L19.2808 11.5131L19.2832 11.5111C19.7369 11.1294 20.3605 11.0169 20.9197 11.215L27.6061 13.4993L27.6196 13.5042C28.8199 13.9447 29.0942 15.5094 28.1144 16.3274L28.1104 16.3307L17.0132 25.5173V42.6794L22.6424 44.833V28.2173C22.6424 27.7324 22.8561 27.2719 23.2271 26.9571L23.2307 26.954L34.7844 17.2247L34.7872 17.2223C35.2513 16.8303 35.8934 16.7212 36.4619 16.9371L48.9751 21.5938L48.9832 21.5969C49.6072 21.8389 50.0443 22.4366 50.0443 23.136V41.1012C50.0443 42.2725 48.8636 43.0588 47.7809 42.6467L47.7717 42.6432L40.8816 39.8968C40.2336 39.6385 39.9189 38.9069 40.1788 38.2628C40.4387 37.6187 41.1748 37.3059 41.8228 37.5642L47.5157 39.8334V23.7343L36.0381 19.463L25.171 28.6141V46.0801C25.171 47.2293 24.0225 48.0296 22.9355 47.6378L22.9239 47.6336L15.5681 44.8195C14.9171 44.5777 14.4847 43.9593 14.4847 43.2674V25.1162C14.4847 24.6267 14.7024 24.1622 15.0795 23.8474L15.0835 23.844L25.315 15.3741L20.542 13.7434L9.55773 22.9476V40.479C9.55773 41.9174 7.7653 42.7417 6.69871 41.6096C2.69852 37.3636 0.18519 31.7263 0.00979789 25.4854C-0.375176 11.787 10.6325 0.396747 24.5593 0.0101058C34.8304 -0.275045 43.8449 5.50029 48.0296 14.042C48.3353 14.666 48.0742 15.4181 47.4464 15.7219C46.8186 16.0257 46.0619 15.7662 45.7562 15.1423Z" fill="black"/>
<path d="M57.9095 26.296V39.3921H55.4167V26.296H57.9095Z" fill="black"/>
<path d="M61.6366 28.4197C61.1974 28.4197 60.8294 28.284 60.5327 28.0127C60.2478 27.7295 60.1053 27.3815 60.1053 26.9685C60.1053 26.5556 60.2478 26.2134 60.5327 25.9421C60.8294 25.6589 61.1974 25.5173 61.6366 25.5173C62.0758 25.5173 62.4379 25.6589 62.7228 25.9421C63.0195 26.2134 63.1679 26.5556 63.1679 26.9685C63.1679 27.3815 63.0195 27.7295 62.7228 28.0127C62.4379 28.284 62.0758 28.4197 61.6366 28.4197ZM62.8652 29.5877V39.3921H60.3724V29.5877H62.8652Z" fill="black"/>
<path d="M67.821 31.0212C68.1415 30.5493 68.5807 30.1659 69.1386 29.8709C69.7084 29.5759 70.3553 29.4285 71.0794 29.4285C71.9222 29.4285 72.682 29.6349 73.3586 30.0479C74.0471 30.4608 74.5872 31.0507 74.9789 31.8176C75.3825 32.5727 75.5843 33.4517 75.5843 34.4545C75.5843 35.4574 75.3825 36.3482 74.9789 37.1268C74.5872 37.8937 74.0471 38.4895 73.3586 38.9143C72.682 39.339 71.9222 39.5514 71.0794 39.5514C70.3435 39.5514 69.6965 39.4098 69.1386 39.1267C68.5925 38.8317 68.1533 38.4541 67.821 37.994V39.3921H65.3281V26.296H67.821V31.0212ZM73.0381 34.4545C73.0381 33.8646 72.9134 33.3573 72.6642 32.9325C72.4267 32.496 72.1062 32.1657 71.7026 31.9415C71.3109 31.7173 70.8836 31.6052 70.4206 31.6052C69.9695 31.6052 69.5422 31.7232 69.1386 31.9592C68.7469 32.1834 68.4264 32.5137 68.1771 32.9502C67.9397 33.3868 67.821 33.9 67.821 34.4899C67.821 35.0798 67.9397 35.5931 68.1771 36.0296C68.4264 36.4661 68.7469 36.8024 69.1386 37.0384C69.5422 37.2625 69.9695 37.3746 70.4206 37.3746C70.8836 37.3746 71.3109 37.2566 71.7026 37.0207C72.1062 36.7847 72.4267 36.4484 72.6642 36.0119C72.9134 35.5754 73.0381 35.0562 73.0381 34.4545Z" fill="black"/>
<path d="M86.5658 34.2776C86.5658 34.6315 86.5421 34.9501 86.4946 35.2332H79.2832C79.3426 35.9411 79.5918 36.4956 80.0311 36.8968C80.4703 37.2979 81.0104 37.4985 81.6514 37.4985C82.5773 37.4985 83.2361 37.1032 83.6278 36.3128H86.3165C86.0316 37.2566 85.4856 38.0353 84.6784 38.6488C83.8712 39.2505 82.88 39.5514 81.7048 39.5514C80.7552 39.5514 79.9005 39.3449 79.1408 38.932C78.3929 38.5072 77.8053 37.9114 77.378 37.1445C76.9625 36.3777 76.7548 35.4928 76.7548 34.4899C76.7548 33.4753 76.9625 32.5845 77.378 31.8176C77.7935 31.0507 78.3751 30.4608 79.123 30.0479C79.8708 29.6349 80.7314 29.4285 81.7048 29.4285C82.6426 29.4285 83.4795 29.629 84.2154 30.0302C84.9633 30.4313 85.539 31.0035 85.9426 31.7468C86.3581 32.4783 86.5658 33.3219 86.5658 34.2776ZM83.984 33.5697C83.9721 32.9325 83.7406 32.4252 83.2895 32.0477C82.8384 31.6583 82.2865 31.4637 81.6336 31.4637C81.0163 31.4637 80.494 31.6524 80.0667 32.03C79.6512 32.3957 79.396 32.909 79.301 33.5697H83.984Z" fill="black"/>
<path d="M90.8782 26.296V39.3921H88.3853V26.296H90.8782Z" fill="black"/>
<path d="M94.6053 28.4197C94.1661 28.4197 93.7981 28.284 93.5013 28.0127C93.2164 27.7295 93.074 27.3815 93.074 26.9685C93.074 26.5556 93.2164 26.2134 93.5013 25.9421C93.7981 25.6589 94.1661 25.5173 94.6053 25.5173C95.0445 25.5173 95.4066 25.6589 95.6914 25.9421C95.9882 26.2134 96.1366 26.5556 96.1366 26.9685C96.1366 27.3815 95.9882 27.7295 95.6914 28.0127C95.4066 28.284 95.0445 28.4197 94.6053 28.4197ZM95.8339 29.5877V39.3921H93.3411V29.5877H95.8339Z" fill="black"/>
<path d="M101.199 31.6229V36.3659C101.199 36.6962 101.276 36.9381 101.431 37.0914C101.597 37.233 101.87 37.3038 102.25 37.3038H103.407V39.3921H101.84C99.7391 39.3921 98.6885 38.3775 98.6885 36.3482V31.6229H97.5134V29.5877H98.6885V27.1632H101.199V29.5877H103.407V31.6229H101.199Z" fill="black"/>
</svg>
