<svg width="76" height="23" viewBox="0 0 76 23" fill="none" xmlns="http://www.w3.org/2000/svg">
<path d="M4.71482 1.53954V22.0119H0.841675V1.53954H4.71482Z" fill="black"/>
<path d="M10.5057 4.85938C9.82332 4.85938 9.25157 4.64728 8.79048 4.22307C8.34783 3.78043 8.12651 3.23634 8.12651 2.59082C8.12651 1.9453 8.34783 1.41043 8.79048 0.986233C9.25157 0.543588 9.82332 0.322266 10.5057 0.322266C11.1881 0.322266 11.7507 0.543588 12.1933 0.986233C12.6544 1.41043 12.8849 1.9453 12.8849 2.59082C12.8849 3.23634 12.6544 3.78043 12.1933 4.22307C11.7507 4.64728 11.1881 4.85938 10.5057 4.85938ZM12.4146 6.68529V22.0119H8.54149V6.68529H12.4146Z" fill="black"/>
<path d="M20.1145 8.92618C20.6124 8.18843 21.2948 7.58902 22.1617 7.12793C23.047 6.66684 24.0521 6.4363 25.1772 6.4363C26.4867 6.4363 27.6671 6.75906 28.7184 7.40458C29.7881 8.05011 30.6273 8.97228 31.2359 10.1711C31.863 11.3515 32.1765 12.7255 32.1765 14.2932C32.1765 15.8609 31.863 17.2534 31.2359 18.4707C30.6273 19.6695 29.7881 20.6009 28.7184 21.2649C27.6671 21.9289 26.4867 22.2609 25.1772 22.2609C24.0337 22.2609 23.0285 22.0395 22.1617 21.5969C21.3133 21.1358 20.6309 20.5456 20.1145 19.8263V22.0119H16.2413V1.53954H20.1145V8.92618ZM28.2204 14.2932C28.2204 13.3711 28.0267 12.578 27.6394 11.914C27.2705 11.2316 26.7726 10.7152 26.1455 10.3648C25.5368 10.0143 24.8729 9.83913 24.1536 9.83913C23.4527 9.83913 22.7888 10.0236 22.1617 10.3924C21.553 10.7429 21.0551 11.2593 20.6678 11.9417C20.2989 12.6241 20.1145 13.4264 20.1145 14.3486C20.1145 15.2708 20.2989 16.073 20.6678 16.7555C21.0551 17.4379 21.553 17.9635 22.1617 18.3324C22.7888 18.6828 23.4527 18.858 24.1536 18.858C24.8729 18.858 25.5368 18.6736 26.1455 18.3047C26.7726 17.9358 27.2705 17.4102 27.6394 16.7278C28.0267 16.0454 28.2204 15.2339 28.2204 14.2932Z" fill="black"/>
<path d="M49.2387 14.0166C49.2387 14.5699 49.2018 15.0679 49.128 15.5105H37.9236C38.0158 16.6171 38.4031 17.484 39.0855 18.1111C39.7679 18.7381 40.6071 19.0517 41.603 19.0517C43.0416 19.0517 44.0653 18.4338 44.6739 17.1981H48.8514C48.4087 18.6736 47.5603 19.8909 46.3061 20.8499C45.052 21.7905 43.5119 22.2609 41.686 22.2609C40.2106 22.2609 38.8826 21.9381 37.7022 21.2926C36.5403 20.6286 35.6273 19.6972 34.9634 18.4984C34.3178 17.2995 33.9951 15.9163 33.9951 14.3486C33.9951 12.7624 34.3178 11.3699 34.9634 10.1711C35.6089 8.97228 36.5126 8.05011 37.6746 7.40458C38.8365 6.75906 40.1737 6.4363 41.686 6.4363C43.1431 6.4363 44.4433 6.74984 45.5868 7.37692C46.7488 8.004 47.6433 8.89851 48.2704 10.0605C48.9159 11.204 49.2387 12.5227 49.2387 14.0166ZM45.2272 12.91C45.2088 11.914 44.8491 11.121 44.1483 10.5308C43.4474 9.92213 42.5898 9.61781 41.5754 9.61781C40.6163 9.61781 39.8048 9.91291 39.1408 10.5031C38.4953 11.0748 38.0988 11.8771 37.9512 12.91H45.2272Z" fill="black"/>
<path d="M55.9389 1.53954V22.0119H52.0657V1.53954H55.9389Z" fill="black"/>
<path d="M61.7298 4.85938C61.0474 4.85938 60.4756 4.64728 60.0145 4.22307C59.5719 3.78043 59.3506 3.23634 59.3506 2.59082C59.3506 1.9453 59.5719 1.41043 60.0145 0.986233C60.4756 0.543588 61.0474 0.322266 61.7298 0.322266C62.4122 0.322266 62.9747 0.543588 63.4173 0.986233C63.8784 1.41043 64.109 1.9453 64.109 2.59082C64.109 3.23634 63.8784 3.78043 63.4173 4.22307C62.9747 4.64728 62.4122 4.85938 61.7298 4.85938ZM63.6387 6.68529V22.0119H59.7655V6.68529H63.6387Z" fill="black"/>
<path d="M71.9748 9.8668V17.2811C71.9748 17.7975 72.0947 18.1756 72.3344 18.4154C72.5927 18.6367 73.0169 18.7474 73.607 18.7474H75.4053V22.0119H72.9707C69.7062 22.0119 68.074 20.4257 68.074 17.2534V9.8668H66.2481V6.68529H68.074V2.89514H71.9748V6.68529H75.4053V9.8668H71.9748Z" fill="black"/>
</svg>
