<svg width="25" height="24" viewBox="0 0 25 24" fill="none" xmlns="http://www.w3.org/2000/svg">
<g clip-path="url(#clip0_2522_18134)">
<path d="M22.7469 0H2.29531C1.31562 0 0.523438 0.773438 0.523438 1.72969V22.2656C0.523438 23.2219 1.31562 24 2.29531 24H22.7469C23.7266 24 24.5234 23.2219 24.5234 22.2703V1.72969C24.5234 0.773438 23.7266 0 22.7469 0ZM7.64375 20.4516H4.08125V8.99531H7.64375V20.4516ZM5.8625 7.43438C4.71875 7.43438 3.79531 6.51094 3.79531 5.37187C3.79531 4.23281 4.71875 3.30937 5.8625 3.30937C7.00156 3.30937 7.925 4.23281 7.925 5.37187C7.925 6.50625 7.00156 7.43438 5.8625 7.43438ZM20.975 20.4516H17.4172V14.8828C17.4172 13.5562 17.3937 11.8453 15.5656 11.8453C13.7141 11.8453 13.4328 13.2937 13.4328 14.7891V20.4516H9.87969V8.99531H13.2922V10.5609H13.3391C13.8125 9.66094 14.975 8.70938 16.7047 8.70938C20.3094 8.70938 20.975 11.0813 20.975 14.1656V20.4516Z" fill="#080908"/>
</g>
<defs>
<clipPath id="clip0_2522_18134">
<rect width="24" height="24" fill="white" transform="translate(0.523438)"/>
</clipPath>
</defs>
</svg>
