<svg width="71" height="68" viewBox="0 0 71 68" fill="none" xmlns="http://www.w3.org/2000/svg">
<path fill-rule="evenodd" clip-rule="evenodd" d="M64.3318 21.2917C57.1806 8.89448 43.5523 6.98526 34.6288 7.23303C19.095 7.66433 6.05608 21.6177 6.45284 35.7366C6.64116 42.4385 7.47892 48.2657 9.88276 53.5808V31.7072C9.88276 31.0235 10.1849 30.3743 10.7091 29.9316L10.7142 29.9273L27.1082 16.1887L27.1115 16.1859C27.7495 15.6492 28.6262 15.4911 29.4124 15.7695L38.8134 18.9815L38.8322 18.9884C40.5199 19.6078 40.9055 21.808 39.528 22.9581L39.5223 22.9629L23.9201 35.8803V60.0121L31.8345 63.0403V39.6768C31.8345 38.995 32.1349 38.3474 32.6566 37.9047L48.9058 24.2199L48.9098 24.2166C49.5623 23.6654 50.465 23.5119 51.2642 23.8155L68.8574 30.3633L68.8688 30.3677C69.7462 30.708 70.3607 31.5484 70.3607 32.5318V57.793C70.3607 59.44 68.7007 60.5456 67.1785 59.9661L67.1655 59.9612L57.4783 56.0995C56.5671 55.7362 56.1247 54.7076 56.4901 53.8018C56.8555 52.8961 57.8904 52.4564 58.8016 52.8196L66.8056 56.0103V33.3731L50.6684 27.3672L35.3896 40.2347V64.7938C35.3896 66.4098 33.7749 67.5351 32.2466 66.9842L32.2302 66.9783L21.8883 63.0213C20.9729 62.6813 20.365 61.8117 20.365 60.8388V35.3162C20.365 34.6279 20.6711 33.9748 21.2013 33.5322L21.207 33.5274L35.5921 21.6177L28.8814 19.3248L13.4379 32.2669V56.9181C13.4379 58.9407 10.9178 60.0997 9.41818 58.5078C3.79403 52.5374 0.260372 44.6107 0.0137755 35.8353C-0.527486 16.5739 14.9489 0.557872 34.5296 0.0142099C48.9704 -0.386745 61.6446 7.73403 67.5281 19.7447C67.9579 20.622 67.5908 21.6796 66.7081 22.1068C65.8255 22.534 64.8199 22.138 64.3318 21.2917Z" fill="black"/>
</svg>
