<svg width="41" height="40" viewBox="0 0 41 40" fill="none" xmlns="http://www.w3.org/2000/svg">
<g id="cube-outline">
<path id="Icon" d="M16.917 34.5804L19.3719 35.9442C19.8446 36.2068 20.081 36.3381 20.3312 36.3896C20.5528 36.4352 20.7812 36.4352 21.0027 36.3896C21.253 36.3381 21.4894 36.2068 21.962 35.9442L24.417 34.5804M9.41699 30.4137L7.03861 29.0924C6.53942 28.8151 6.2898 28.6764 6.10805 28.4792C5.94725 28.3047 5.82557 28.0979 5.75113 27.8726C5.66699 27.6179 5.66699 27.3324 5.66699 26.7613V24.1637M5.66699 15.8304V13.2328C5.66699 12.6617 5.66699 12.3762 5.75113 12.1215C5.82557 11.8962 5.94725 11.6894 6.10805 11.5149C6.2898 11.3177 6.53941 11.179 7.03861 10.9017L9.41699 9.58038M16.917 5.41372L19.3719 4.04985C19.8446 3.78726 20.081 3.65596 20.3312 3.60448C20.5528 3.55892 20.7812 3.55892 21.0027 3.60448C21.253 3.65596 21.4894 3.78726 21.962 4.04985L24.417 5.41371M31.917 9.58038L34.2954 10.9017C34.7946 11.179 35.0442 11.3177 35.2259 11.5149C35.3867 11.6894 35.5084 11.8962 35.5829 12.1215C35.667 12.3762 35.667 12.6617 35.667 13.2328V15.8304M35.667 24.1637V26.7613C35.667 27.3324 35.667 27.6179 35.5829 27.8726C35.5084 28.0979 35.3867 28.3047 35.2259 28.4792C35.0442 28.6764 34.7946 28.8151 34.2954 29.0924L31.917 30.4137M16.917 17.9137L20.667 19.997M20.667 19.997L24.417 17.9137M20.667 19.997V24.1637M5.66699 11.6637L9.41699 13.747M31.917 13.747L35.667 11.6637M20.667 32.497V36.6637" stroke="#1C1C1C" stroke-width="2" stroke-linecap="round" stroke-linejoin="round"/>
</g>
</svg>
