<svg width="41" height="40" viewBox="0 0 41 40" fill="none" xmlns="http://www.w3.org/2000/svg">
<g id="flag-06">
<path id="Icon" d="M7 35L7 6.66667M7 21.6667H19.3333C20.2668 21.6667 20.7335 21.6667 21.09 21.485C21.4036 21.3252 21.6586 21.0703 21.8183 20.7567C22 20.4001 22 19.9334 22 19V7.66667C22 6.73325 22 6.26654 21.8183 5.91002C21.6586 5.59641 21.4036 5.34144 21.09 5.18166C20.7335 5 20.2668 5 19.3333 5H9.66667C8.73325 5 8.26654 5 7.91002 5.18166C7.59641 5.34144 7.34144 5.59641 7.18166 5.91002C7 6.26654 7 6.73325 7 7.66667V21.6667ZM22 8.33333H32.6667C33.6001 8.33333 34.0668 8.33333 34.4233 8.51499C34.7369 8.67478 34.9919 8.92975 35.1517 9.24335C35.3333 9.59987 35.3333 10.0666 35.3333 11V22.3333C35.3333 23.2668 35.3333 23.7335 35.1517 24.09C34.9919 24.4036 34.7369 24.6586 34.4233 24.8183C34.0668 25 33.6001 25 32.6667 25H24.6667C23.7332 25 23.2665 25 22.91 24.8183C22.5964 24.6586 22.3414 24.4036 22.1817 24.09C22 23.7335 22 23.2668 22 22.3333V8.33333Z" stroke="#1C1C1C" stroke-width="2" stroke-linecap="round" stroke-linejoin="round"/>
</g>
</svg>
