<svg width="18" height="20" viewBox="0 0 18 20" fill="none" xmlns="http://www.w3.org/2000/svg">
<path fill-rule="evenodd" clip-rule="evenodd" d="M11.873 1.06179C11.719 0.753926 11.4404 0.526994 11.1078 0.43865C10.775 0.350294 10.4204 0.409058 10.1341 0.599978C9.71901 0.876734 9.39729 1.26973 9.14709 1.65593C8.88987 2.05269 8.66344 2.51221 8.46321 2.99483C8.06288 3.95971 7.72654 5.11678 7.45611 6.27577C7.11263 7.74781 6.85843 9.29868 6.71966 10.5716C6.13863 10.1799 5.8015 9.74076 5.58538 9.29169C5.19236 8.47499 5.10844 7.45108 5.10844 6.10731C5.10844 5.62194 4.81607 5.18439 4.36766 4.99865C3.91925 4.8129 3.40311 4.91557 3.05991 5.25877C1.41994 6.89874 0.599609 9.05059 0.599609 11.1984C0.599609 13.3463 1.41994 15.4982 3.05991 17.1382C6.34031 20.4185 11.6589 20.4185 14.9392 17.1382C16.5793 15.4982 17.3996 13.3463 17.3996 11.1984C17.3996 9.05059 16.5793 6.89874 14.9392 5.25877C14.2297 4.54911 13.7631 4.07587 13.3221 3.4978C12.8864 2.92669 12.4533 2.22233 11.873 1.06179ZM11.5452 16.144C10.1392 17.5499 7.85991 17.5499 6.45403 16.144C5.75108 15.441 5.39961 14.5198 5.39961 13.5984C5.39961 13.5984 6.45403 14.1984 8.39967 14.1984C8.39967 12.9984 8.99961 9.39844 9.89961 8.79844C10.4996 9.99844 10.8422 10.3499 11.5452 11.0529C12.2481 11.7558 12.5996 12.6771 12.5996 13.5984C12.5996 14.5198 12.2481 15.441 11.5452 16.144Z" fill="#E66C4B"/>
</svg>
