<svg width="current" height="current" viewBox="0 0 19 20" fill="none" xmlns="http://www.w3.org/2000/svg">
<path d="M1 19L1 2M1 11H8.4C8.96005 11 9.24008 11 9.45399 10.891C9.64215 10.7951 9.79513 10.6422 9.89101 10.454C10 10.2401 10 9.96005 10 9.4V2.6C10 2.03995 10 1.75992 9.89101 1.54601C9.79513 1.35785 9.64215 1.20487 9.45399 1.10899C9.24008 1 8.96005 1 8.4 1H2.6C2.03995 1 1.75992 1 1.54601 1.10899C1.35785 1.20487 1.20487 1.35785 1.10899 1.54601C1 1.75992 1 2.03995 1 2.6V11ZM10 3H16.4C16.9601 3 17.2401 3 17.454 3.10899C17.6422 3.20487 17.7951 3.35785 17.891 3.54601C18 3.75992 18 4.03995 18 4.6V11.4C18 11.9601 18 12.2401 17.891 12.454C17.7951 12.6422 17.6422 12.7951 17.454 12.891C17.2401 13 16.9601 13 16.4 13H11.6C11.0399 13 10.7599 13 10.546 12.891C10.3578 12.7951 10.2049 12.6422 10.109 12.454C10 12.2401 10 11.9601 10 11.4V3Z" stroke="#080908" strokeWidth="current" stroke-linecap="round" stroke-linejoin="round"/>
</svg>
