<svg width="16" height="16" viewBox="0 0 16 16" fill="none" xmlns="http://www.w3.org/2000/svg">
<path d="M14.75 9.5V11.15C14.75 12.4101 14.75 13.0402 14.5048 13.5215C14.289 13.9448 13.9448 14.289 13.5215 14.5048C13.0402 14.75 12.4101 14.75 11.15 14.75H9.5M6.5 1.25H4.85C3.58988 1.25 2.95982 1.25 2.47852 1.49524C2.05516 1.71095 1.71095 2.05516 1.49524 2.47852C1.25 2.95982 1.25 3.58988 1.25 4.85V6.5M10.25 5.75L14.75 1.25M14.75 1.25H10.25M14.75 1.25V5.75M5.75 10.25L1.25 14.75M1.25 14.75H5.75M1.25 14.75L1.25 10.25" stroke="currentColor" stroke-width="1.5" stroke-linecap="round" stroke-linejoin="round"/>
</svg>
