<svg width="20" height="22" viewBox="0 0 20 22" fill="none" xmlns="http://www.w3.org/2000/svg">
<path d="M12.6193 19.5086L8.68011 20.2032M14.3011 6.01155C14.0248 4.44443 13.1373 3.05126 11.8338 2.13853C10.5302 1.22579 8.91753 0.868266 7.35041 1.14459C5.78328 1.42092 4.39012 2.30846 3.47738 3.61198C2.56465 4.9155 2.20712 6.5282 2.48345 8.09533C3.02005 11.1386 2.61977 13.3576 2.0052 14.887C1.48681 16.177 1.22761 16.8221 1.26947 16.9819C1.31581 17.1589 1.36592 17.2206 1.52953 17.3024C1.67729 17.3763 2.26633 17.2725 3.44442 17.0647L16.4658 14.7687C17.6439 14.561 18.233 14.4571 18.3465 14.3371C18.4723 14.2043 18.4983 14.1291 18.4813 13.947C18.466 13.7825 18.0018 13.265 17.0734 12.23C15.9728 11.0031 14.8377 9.05479 14.3011 6.01155Z" stroke="#080908" strokeWidth="2" stroke-linecap="round" stroke-linejoin="round"/>
</svg>
