<svg width="22" height="21" viewBox="0 0 22 21" fill="none" xmlns="http://www.w3.org/2000/svg">
<path d="M21 7.0004V11.0004M9.25 4.5004H5.8C4.11984 4.5004 3.27976 4.5004 2.63803 4.82738C2.07354 5.115 1.6146 5.57394 1.32698 6.13843C0.999998 6.78016 0.999999 7.62024 1 9.3004L1 10.5004C1 11.4323 1 11.8982 1.15224 12.2658C1.35523 12.7558 1.74458 13.1452 2.23463 13.3482C2.60218 13.5004 3.06812 13.5004 4 13.5004V17.7504C4 17.9826 4 18.0987 4.00963 18.1964C4.10316 19.146 4.85441 19.8972 5.80397 19.9908C5.90175 20.0004 6.01783 20.0004 6.25 20.0004C6.48217 20.0004 6.59826 20.0004 6.69604 19.9908C7.64559 19.8972 8.39685 19.146 8.49037 18.1964C8.5 18.0987 8.5 17.9826 8.5 17.7504V13.5004H9.25C11.0164 13.5004 13.1772 14.4473 14.8443 15.356C15.8168 15.8862 16.3031 16.1513 16.6216 16.1123C16.9169 16.0761 17.1402 15.9435 17.3133 15.7015C17.5 15.4405 17.5 14.9184 17.5 13.8741V4.12668C17.5 3.0824 17.5 2.56025 17.3133 2.29929C17.1402 2.0573 16.9169 1.9247 16.6216 1.88853C16.3031 1.84952 15.8168 2.1146 14.8443 2.64475C13.1772 3.55351 11.0164 4.5004 9.25 4.5004Z" stroke="#080908" strokeWidth="2" stroke-linecap="round" stroke-linejoin="round"/>
</svg>
