<svg width="20" height="20" viewBox="0 0 20 20" fill="none" xmlns="http://www.w3.org/2000/svg">
<path d="M1 5.8C1 4.11984 1 3.27976 1.32698 2.63803C1.6146 2.07354 2.07354 1.6146 2.63803 1.32698C3.27976 1 4.11984 1 5.8 1H14.2C15.8802 1 16.7202 1 17.362 1.32698C17.9265 1.6146 18.3854 2.07354 18.673 2.63803C19 3.27976 19 4.11984 19 5.8V14.2C19 15.8802 19 16.7202 18.673 17.362C18.3854 17.9265 17.9265 18.3854 17.362 18.673C16.7202 19 15.8802 19 14.2 19H5.8C4.11984 19 3.27976 19 2.63803 18.673C2.07354 18.3854 1.6146 17.9265 1.32698 17.362C1 16.7202 1 15.8802 1 14.2V5.8Z" stroke="#080908" strokeWidth="2" stroke-linecap="round" stroke-linejoin="round"/>
<path d="M11.8333 5.3C11.8333 5.01997 11.8333 4.87996 11.7788 4.773C11.7309 4.67892 11.6544 4.60243 11.5603 4.5545C11.4534 4.5 11.3134 4.5 11.0333 4.5H8.96667C8.68664 4.5 8.54663 4.5 8.43967 4.5545C8.34559 4.60243 8.2691 4.67892 8.22116 4.773C8.16667 4.87996 8.16667 5.01997 8.16667 5.3V7.36667C8.16667 7.64669 8.16667 7.78671 8.11217 7.89366C8.06423 7.98774 7.98774 8.06423 7.89366 8.11217C7.78671 8.16667 7.64669 8.16667 7.36667 8.16667H5.3C5.01997 8.16667 4.87996 8.16667 4.773 8.22116C4.67892 8.2691 4.60243 8.34559 4.5545 8.43967C4.5 8.54663 4.5 8.68664 4.5 8.96667V11.0333C4.5 11.3134 4.5 11.4534 4.5545 11.5603C4.60243 11.6544 4.67892 11.7309 4.773 11.7788C4.87996 11.8333 5.01997 11.8333 5.3 11.8333H7.36667C7.64669 11.8333 7.78671 11.8333 7.89366 11.8878C7.98774 11.9358 8.06423 12.0123 8.11217 12.1063C8.16667 12.2133 8.16667 12.3533 8.16667 12.6333V14.7C8.16667 14.98 8.16667 15.12 8.22116 15.227C8.2691 15.3211 8.34559 15.3976 8.43967 15.4455C8.54663 15.5 8.68664 15.5 8.96667 15.5H11.0333C11.3134 15.5 11.4534 15.5 11.5603 15.4455C11.6544 15.3976 11.7309 15.3211 11.7788 15.227C11.8333 15.12 11.8333 14.98 11.8333 14.7V12.6333C11.8333 12.3533 11.8333 12.2133 11.8878 12.1063C11.9358 12.0123 12.0123 11.9358 12.1063 11.8878C12.2133 11.8333 12.3533 11.8333 12.6333 11.8333H14.7C14.98 11.8333 15.12 11.8333 15.227 11.7788C15.3211 11.7309 15.3976 11.6544 15.4455 11.5603C15.5 11.4534 15.5 11.3134 15.5 11.0333V8.96667C15.5 8.68664 15.5 8.54663 15.4455 8.43967C15.3976 8.34559 15.3211 8.2691 15.227 8.22116C15.12 8.16667 14.98 8.16667 14.7 8.16667H12.6333C12.3533 8.16667 12.2133 8.16667 12.1063 8.11217C12.0123 8.06423 11.9358 7.98774 11.8878 7.89366C11.8333 7.78671 11.8333 7.64669 11.8333 7.36667V5.3Z" stroke="#080908" strokeWidth="2" stroke-linecap="round" stroke-linejoin="round"/>
</svg>
