<svg width="16" height="15" viewBox="0 0 16 15" fill="none" xmlns="http://www.w3.org/2000/svg">
<path d="M7.16196 2.89488C7.4329 2.85482 7.7124 2.83333 8.00028 2.83333C11.4036 2.83333 13.6369 5.83656 14.3871 7.02455C14.4779 7.16833 14.5233 7.24023 14.5488 7.35112C14.5678 7.43439 14.5678 7.56578 14.5487 7.64905C14.5233 7.75993 14.4776 7.8323 14.3861 7.97705C14.1862 8.29343 13.8814 8.73807 13.4777 9.2203M4.48288 3.97669C3.0415 4.95447 2.06297 6.31292 1.61407 7.02352C1.52286 7.16791 1.47725 7.24011 1.45183 7.35099C1.43273 7.43426 1.43272 7.56563 1.45181 7.64891C1.47722 7.75979 1.52262 7.83168 1.61342 7.97545C2.36369 9.16344 4.59694 12.1667 8.00028 12.1667C9.37255 12.1667 10.5546 11.6784 11.5259 11.0177M2.00028 1.5L14.0003 13.5M6.58606 6.08579C6.22413 6.44772 6.00028 6.94772 6.00028 7.5C6.00028 8.60457 6.89571 9.5 8.00028 9.5C8.55256 9.5 9.05256 9.27614 9.41449 8.91421" stroke="#787878" strokeWidth="2" stroke-linecap="round" stroke-linejoin="round"/>
</svg>
