<svg width="23" height="22" viewBox="0 0 23 22" fill="none" xmlns="http://www.w3.org/2000/svg">
<path d="M16.7448 1.81249C17.7096 0.816014 19.3036 0.803124 20.2844 1.78387C21.2382 2.73775 21.256 4.27872 20.3244 5.25432L17.5457 8.16409C17.3279 8.39216 17.219 8.50619 17.1519 8.63975C17.0925 8.75799 17.0571 8.88683 17.0479 9.01883C17.0375 9.16794 17.0729 9.32158 17.1438 9.62886L18.8717 17.1164C18.9445 17.4318 18.9809 17.5895 18.9691 17.7421C18.9588 17.8771 18.921 18.0086 18.8583 18.1286C18.7874 18.2642 18.673 18.3787 18.4441 18.6076L18.0733 18.9783C17.4671 19.5845 17.1641 19.8875 16.8539 19.9424C16.583 19.9903 16.3044 19.9245 16.0835 19.7606C15.8306 19.5728 15.6951 19.1661 15.424 18.3529L13.4143 12.3236L10.0689 15.669C9.86926 15.8687 9.76941 15.9685 9.70263 16.0861C9.64346 16.1902 9.60349 16.3042 9.58462 16.4225C9.56332 16.556 9.57891 16.6964 9.6101 16.977L9.79381 18.6304C9.825 18.9111 9.84059 19.0514 9.81929 19.185C9.80042 19.3033 9.76045 19.4172 9.70128 19.5214C9.6345 19.6389 9.53465 19.7388 9.33497 19.9385L9.13746 20.136C8.6644 20.609 8.42787 20.8456 8.16502 20.9141C7.93448 20.9742 7.69005 20.95 7.47577 20.8458C7.23146 20.7271 7.04591 20.4488 6.67481 19.8921L5.10649 17.5396C5.04019 17.4402 5.00704 17.3905 4.96855 17.3454C4.93436 17.3053 4.89707 17.268 4.857 17.2338C4.81191 17.1953 4.76218 17.1622 4.66273 17.0959L2.31025 15.5276C1.7536 15.1565 1.47527 14.9709 1.35655 14.7266C1.25242 14.5123 1.22822 14.2679 1.2883 14.0374C1.35681 13.7745 1.59334 13.538 2.06639 13.0649L2.2639 12.8674C2.46359 12.6677 2.56343 12.5679 2.68101 12.5011C2.78517 12.4419 2.89912 12.402 3.01742 12.3831C3.15095 12.3618 3.29129 12.3774 3.57196 12.4086L5.22535 12.5923C5.50602 12.6235 5.64636 12.6391 5.77989 12.6178C5.89819 12.5989 6.01214 12.5589 6.1163 12.4997C6.23388 12.433 6.33372 12.3331 6.53341 12.1334L9.87873 8.78811L3.84945 6.77835C3.03623 6.50727 2.62961 6.37174 2.44182 6.11883C2.27783 5.89799 2.21206 5.61935 2.25997 5.34849C2.31483 5.0383 2.6179 4.73523 3.22405 4.12909L3.59482 3.75831C3.82371 3.52942 3.93816 3.41497 4.07375 3.34408C4.19376 3.28134 4.32527 3.24362 4.46029 3.23323C4.61284 3.22148 4.77055 3.25787 5.08596 3.33066L12.5451 5.052C12.8551 5.12353 13.01 5.15929 13.1597 5.14865C13.3041 5.13838 13.4446 5.09685 13.5715 5.02693C13.7028 4.95452 13.8135 4.84025 14.0347 4.61171L16.7448 1.81249Z" stroke="#D25130" stroke-width="2" stroke-linecap="round" stroke-linejoin="round"/>
</svg>
