<svg width="26" height="26" viewBox="0 0 26 26" fill="none" xmlns="http://www.w3.org/2000/svg">
<path d="M11.2498 14.8947L23.4998 2.64473M11.3986 15.2775L14.4647 23.1618C14.7349 23.8564 14.8699 24.2037 15.0645 24.3051C15.2332 24.393 15.4342 24.3931 15.603 24.3054C15.7977 24.2042 15.9332 23.8571 16.2041 23.1628L23.8928 3.46046C24.1374 2.83375 24.2597 2.5204 24.1928 2.32017C24.1347 2.14628 23.9982 2.00981 23.8243 1.95172C23.6241 1.88483 23.3107 2.00711 22.684 2.25168L2.98167 9.94041C2.28741 10.2113 1.94029 10.3468 1.83913 10.5415C1.75143 10.7103 1.75155 10.9113 1.83944 11.08C1.94083 11.2746 2.28812 11.4096 2.98269 11.6798L10.867 14.7459C11.008 14.8007 11.0785 14.8281 11.1379 14.8705C11.1905 14.908 11.2365 14.954 11.274 15.0066C11.3164 15.066 11.3438 15.1365 11.3986 15.2775Z" stroke="#D25130" stroke-width="2" stroke-linecap="round" stroke-linejoin="round"/>
</svg>
