<svg width="40" height="40" viewBox="0 0 40 40" fill="none" xmlns="http://www.w3.org/2000/svg">
<g id="play">
<path id="Icon" d="M8.33301 8.3152C8.33301 6.6966 8.33301 5.88729 8.67049 5.44117C8.9645 5.05253 9.41388 4.81203 9.90034 4.78298C10.4587 4.74964 11.1321 5.19856 12.4789 6.0964L30.0048 17.7804C31.1176 18.5222 31.674 18.8932 31.8679 19.3607C32.0374 19.7695 32.0374 20.2289 31.8679 20.6376C31.674 21.1051 31.1176 21.4761 30.0048 22.218L12.4789 33.9019C11.1321 34.7998 10.4587 35.2487 9.90034 35.2153C9.41388 35.1863 8.9645 34.9458 8.67049 34.5571C8.33301 34.111 8.33301 33.3017 8.33301 31.6831V8.3152Z" stroke="currentColor" stroke-width="2" stroke-linecap="round" stroke-linejoin="round"/>
</g>
</svg>
