<svg width="67" height="66" viewBox="0 0 67 66" fill="none" xmlns="http://www.w3.org/2000/svg">
<path d="M31.0757 37.6885L31.1235 37.6091L31.048 37.5991L31.0757 37.6885ZM29.3437 35.3781L29.394 35.3157L29.3134 35.3037L29.3437 35.3781ZM28.5532 31.5961L28.4676 31.5472L28.4575 31.6231L28.5532 31.5961ZM31.3627 29.0614L31.4079 28.9857L31.3375 28.9754L31.3627 29.0614ZM35.2748 38.9188C35.3982 40.909 35.8362 42.8484 36.2163 44.798C36.5058 46.2801 36.7501 47.7709 37.037 49.2533C37.3265 50.7371 37.6488 52.2145 37.9458 53.6965C38.3184 55.5475 38.6759 57.4006 39.0485 59.2518C39.2877 60.4552 39.557 61.6535 39.7861 62.8587C39.9447 63.6935 40.0882 64.5337 40.1889 65.3773C40.2493 65.896 39.9724 66.0687 39.4135 65.8359C37.6991 56.9318 35.9772 47.9927 34.2552 39.0536C34.2099 39.0519 34.1621 39.0496 34.1142 39.0473V64.4174C34.1142 64.8 34.1621 65.1982 34.0689 65.5597C34.0236 65.7442 33.714 65.8629 33.5377 66C33.4144 65.8825 33.3767 65.8524 33.3464 65.8173C33.3162 65.7825 33.281 65.7464 33.2633 65.7045C33.2457 65.6612 33.2407 65.6106 33.2407 65.5632C33.2407 56.2741 33.2407 46.9852 33.0796 37.6763C32.7598 39.2305 32.4376 40.784 32.1229 42.3387C31.8964 43.4497 31.6748 44.5625 31.4583 45.6753C30.9976 48.0378 30.5495 50.4031 30.0762 52.7629C29.7389 54.4282 29.3487 56.0824 29.0138 57.7479C28.679 59.4152 28.392 61.092 28.0673 62.7615C27.8684 63.7787 27.6368 64.7898 27.4253 65.7885C26.6801 65.8852 26.519 65.8023 26.6147 65.3152C26.7683 64.5279 27.0024 63.7564 27.1585 62.9699C27.6569 60.4682 28.1352 57.9629 28.6237 55.4595C29.2026 52.4936 29.7792 49.5269 30.3682 46.5632C30.7484 44.6637 31.1511 42.7689 31.5439 40.8719C31.7227 40.0022 31.9064 39.1328 31.9266 38.2019C31.7101 38.6224 31.4659 39.0316 31.2795 39.4648C30.5294 41.21 29.7917 42.9601 29.0617 44.7128C28.4021 46.2894 27.7627 47.8742 27.1031 49.4503C26.3327 51.2894 25.5498 53.1238 24.7719 54.9599C23.6592 57.584 22.549 60.2079 21.4337 62.8311C21.0435 63.7494 20.6332 64.6595 20.2606 65.5848C20.1221 65.9321 19.8628 66.0381 19.5985 65.8937C19.4651 65.8216 19.3719 65.451 19.4374 65.2836C19.9056 64.0892 20.4141 62.9125 20.9126 61.7306C21.8516 59.4991 22.7881 57.2658 23.7372 55.0373C24.4044 53.4623 25.1017 51.8982 25.7663 50.3217C26.9294 47.5663 28.0698 44.802 29.2354 42.0471C29.6407 41.0834 30.1014 40.1423 30.5067 39.1781C30.6124 38.9243 30.6049 38.6229 30.6502 38.3432C30.6905 38.2746 30.7333 38.2059 30.7735 38.1373C30.7358 38.2077 30.6955 38.2779 30.6552 38.3483C30.4815 38.5031 30.2675 38.6304 30.1417 38.8171C27.1308 43.2576 24.135 47.7063 21.1291 52.1491C19.1076 55.136 17.0835 58.1213 15.0494 61.0982C14.0298 62.5863 12.9624 64.0398 11.9655 65.5409C11.6508 66.012 11.3236 66.0245 10.7899 65.8471C11.8271 64.2891 12.8291 62.7554 13.8613 61.2408C14.5812 60.1824 15.3515 59.1578 16.0791 58.1037C17.5367 55.9939 18.9868 53.881 20.4217 51.7567C21.9071 49.554 23.3571 47.327 24.85 45.1268C26.5518 42.6141 28.2838 40.1205 29.9932 37.6126C30.0662 37.5049 30.0511 37.3375 30.0788 37.1974C30.1191 37.1338 30.1619 37.0702 30.2021 37.0065C30.1593 37.0689 30.1165 37.131 30.0738 37.1932C28.9031 38.3232 27.7174 39.439 26.5644 40.5861C18.3675 48.7364 10.1782 56.8935 1.98377 65.0471C1.71189 65.3175 1.45259 65.6086 1.14042 65.8263C0.979302 65.9396 0.719994 65.9138 0.468246 65.9566C0.495936 65.2119 0.97678 64.8674 1.36952 64.4748C4.52893 61.3254 7.69341 58.1799 10.8528 55.0333C16.565 49.349 22.2771 43.666 27.9842 37.9774C28.319 37.6437 28.6086 37.2651 28.9182 36.9073C29.0138 36.8106 29.1095 36.7141 29.2052 36.6174C29.2505 36.5532 29.2933 36.4891 29.3387 36.4247C29.2958 36.4911 29.2556 36.5575 29.2128 36.6236C29.1146 36.7189 29.0189 36.8143 28.9207 36.9095C28.2914 37.2288 27.6217 37.4881 27.0377 37.8765C20.5023 42.229 13.9795 46.6033 7.44919 50.9674C5.43021 52.3167 3.39859 53.6482 1.38209 54.9992C1.05988 55.2155 0.780413 55.5129 0.292035 55.013C0.55884 54.7141 0.78797 54.3495 1.11021 54.1188C1.88307 53.5678 2.70628 53.0839 3.50181 52.565C4.61956 51.8384 5.73481 51.1092 6.84503 50.3728C8.07355 49.5583 9.29704 48.7359 10.5205 47.9148C12.2601 46.7487 13.9921 45.5768 15.7342 44.4144C18.662 42.4588 21.5949 40.5134 24.5202 38.5545C25.8972 37.6327 27.2592 36.6895 28.6287 35.7559C28.6715 35.6915 28.7143 35.6277 28.7571 35.5635C28.7169 35.6294 28.674 35.6958 28.6337 35.7622C27.8659 36 27.0805 36.1887 26.3353 36.4846C22.7957 37.8902 19.2612 39.313 15.7367 40.7534C12.7384 41.9785 9.76025 43.2523 6.75941 44.4741C4.74291 45.2952 2.70376 46.0626 0.684745 46.8504C0.130914 46.4082 0.382691 46.0631 0.833329 45.8607C1.56838 45.5299 2.34381 45.2881 3.09398 44.9894C6.5454 43.6164 9.99936 42.2526 13.4383 40.8549C16.4416 39.6354 19.4223 38.3641 22.4206 37.1365C24.0922 36.452 25.784 35.8123 27.4656 35.1471C27.73 35.0423 27.9817 34.908 28.1907 34.5943C26.9546 34.8133 25.7185 35.0251 24.4849 35.2531C22.5263 35.6154 20.5678 35.9797 18.6142 36.3598C17.0785 36.6587 15.5479 36.9882 14.0123 37.2944C11.7339 37.7484 9.45564 38.1942 7.1748 38.6417C5.31438 39.0067 3.45648 39.3713 1.59355 39.7311C1.17063 39.8128 0.727553 39.9256 0.420429 39.3686C0.657056 38.7193 1.35692 38.7707 1.83021 38.6783C5.13565 38.0331 8.46122 37.4896 11.7717 36.8689C13.8663 36.4753 15.9457 35.9867 18.0377 35.5753C19.3896 35.3097 20.7541 35.1203 22.1059 34.871C22.9921 34.7081 23.8657 34.4773 24.7518 34.316C26.0987 34.0709 27.4531 33.8597 28.7999 33.4831H27.3851C18.9138 33.4831 10.445 33.4876 1.97621 33.4718C1.44503 33.4708 0.793012 33.7399 0.380141 32.9714C0.616798 32.8451 0.835818 32.6552 1.08249 32.6154C1.45763 32.5545 1.84782 32.5956 2.233 32.5956C10.3166 32.5953 18.4027 32.5953 26.4864 32.5953H27.9062C27.9087 32.5369 27.9137 32.4783 27.9163 32.4199C26.8791 32.2037 25.8419 31.9809 24.8021 31.773C23.3143 31.4751 21.824 31.1881 20.3336 30.8963C18.38 30.5134 16.424 30.1406 14.473 29.7444C11.3588 29.113 8.25229 28.4508 5.13817 27.8316C3.78881 27.5635 2.42181 27.3889 1.07245 27.127C0.800569 27.0744 0.568952 26.8191 0.304635 26.6495C0.639449 26.1002 1.05988 26.2175 1.39976 26.2859C4.46351 26.908 7.52473 27.5643 10.5885 28.1939C13.0506 28.6996 15.5001 29.3029 17.9848 29.6407C20.3966 29.9682 22.7227 30.6141 25.0942 31.0842C26.0156 31.2668 26.9646 31.3165 27.944 31.2794C27.4933 31.0596 27.0553 30.8183 26.5946 30.6242C23.6542 29.3809 20.7138 28.1428 17.7683 26.9128C15.8777 26.1238 13.9795 25.3565 12.0864 24.5708C10.4148 23.876 8.74822 23.1679 7.07913 22.4673C5.10295 21.6379 3.12671 20.8108 1.1505 19.9797C0.934002 19.8895 0.639447 19.8326 0.541263 19.6665C0.435519 19.4863 0.518614 19.1967 0.518614 18.8765C1.654 19.2929 2.68364 19.6247 3.67802 20.0418C6.53538 21.2415 9.37003 22.4933 12.2274 23.6908C14.8178 24.7762 17.4335 25.8006 20.024 26.8837C21.7409 27.6011 23.4226 28.3981 25.1395 29.1143C26.1893 29.5525 27.2743 29.9045 28.3442 30.2952C28.5381 30.3909 28.7294 30.4866 28.9233 30.582C28.9912 30.6219 29.0592 30.6617 29.1247 30.7013C29.0567 30.6635 28.9862 30.6256 28.9182 30.5873C28.7244 30.4916 28.533 30.3959 28.3392 30.2999C27.949 29.9657 27.584 29.5941 27.1635 29.3034C24.3792 27.3844 21.5974 25.4648 18.7904 23.5793C14.9941 21.0293 11.1751 18.5121 7.37117 15.9757C5.19103 14.5234 3.02097 13.0586 0.845867 11.6039C0.443046 11.3343 0.130914 11.0619 0.752722 10.4971C10.2411 16.8842 19.7596 23.2921 29.2782 29.7001C29.3261 29.6467 29.3739 29.5928 29.4192 29.5392C27.8105 27.9336 26.2019 26.3267 24.5907 24.7224C22.9569 23.0965 21.3205 21.4733 19.6892 19.8479C18.0553 18.2228 16.424 16.5951 14.7926 14.9697C13.1916 13.3783 11.5905 11.7888 9.99187 10.1974C8.35803 8.57203 6.72419 6.94712 5.09536 5.31922C3.47917 3.70633 1.84533 2.10877 0 0.233038C0.641968 0.233038 0.949123 0.139336 1.12029 0.252338C1.47524 0.486615 1.76223 0.825373 2.06687 1.12956C10.9158 9.93287 19.7596 18.7379 28.6111 27.538C28.9786 27.9053 29.394 28.227 29.7893 28.5703C29.8849 28.6658 29.9831 28.7615 30.0788 28.8569C30.1417 28.9008 30.2071 28.9444 30.2726 28.988C30.2046 28.9464 30.1392 28.9051 30.0712 28.8635C29.9755 28.7675 29.8799 28.6713 29.7842 28.5753C29.4645 27.9486 29.1926 27.2912 28.8125 26.7016C27.8634 25.223 26.874 23.77 25.8872 22.3165C24.2332 19.8805 22.5566 17.4605 20.9127 15.0186C17.8061 10.4077 14.7172 5.78451 11.6156 1.17189C11.3991 0.849156 11.1021 0.571308 11.4772 0.161374C12.0511 0.143343 12.3155 0.61514 12.5622 0.978703C13.7102 2.66625 14.7926 4.39689 15.9255 6.09446C17.0559 7.79229 18.219 9.4693 19.3695 11.1551C20.0366 12.1358 20.7138 13.1113 21.3759 14.097C22.6699 16.027 23.9638 17.9589 25.2477 19.8965C26.3756 21.5986 27.4681 23.3242 28.6186 25.0113C29.2505 25.9411 29.9705 26.8136 30.6527 27.7121C30.7484 27.9023 30.8466 28.0919 30.9448 28.2821C31.0077 28.325 31.0707 28.3678 31.1361 28.4107C31.0707 28.3701 31.0052 28.3292 30.9398 28.2884C30.8441 28.0955 30.7484 27.9028 30.6553 27.7096C30.4539 27.0323 30.3028 26.336 30.046 25.681C29.248 23.6495 28.4122 21.6314 27.5815 19.6121C26.6802 17.4172 25.7538 15.232 24.8651 13.0326C23.7801 10.3495 22.7378 7.64872 21.6427 4.96894C21.0159 3.43474 20.3236 1.9276 19.6564 0.405423C20.4192 0.10976 20.5955 0.137066 20.8044 0.651979C21.4086 2.14685 21.9851 3.65348 22.5818 5.1516C23.2313 6.78177 23.8858 8.41017 24.5504 10.0343C25.5221 12.4074 26.5014 14.7762 27.4807 17.1463C28.5482 19.7351 29.6231 22.3212 30.6855 24.9123C31.0933 25.9068 31.476 26.9113 31.9769 27.8805C30.3255 18.656 28.4777 9.47783 26.791 0.237044C27.5135 0.114278 27.6897 0.41369 27.7677 0.814577C28.0597 2.29742 28.3492 3.78103 28.6337 5.26511C28.9661 6.98122 29.2908 8.69832 29.6231 10.4142C30.0636 12.6848 30.5067 14.9554 30.9548 17.2245C31.5011 20.0033 32.0675 22.7782 32.5987 25.56C32.78 26.5141 32.8782 27.4838 33.2206 28.431C33.2206 23.6958 33.2155 18.9609 33.2206 14.226C33.2281 9.54798 33.1954 4.86921 33.2432 0.218509C33.8399 0.110256 34.0337 0.383631 34.0866 0.732666C34.142 1.10824 34.1143 1.49713 34.1143 1.87999V27.2849C34.1671 27.2869 34.2175 27.2886 34.2704 27.2906C36.0679 18.2846 37.8653 9.2784 39.6628 0.283903C40.4004 0.194697 40.564 0.280897 40.4759 0.759705C40.1688 2.43173 39.8466 4.10098 39.5118 5.76822C38.9755 8.45351 38.4343 11.1378 37.883 13.8198C37.2636 16.8259 36.6242 19.8271 36.0075 22.8331C35.7506 24.0827 35.5266 25.3395 35.29 26.5931C35.1968 27.0935 35.1037 27.5946 35.1842 28.1561C35.4083 27.6254 35.6348 27.095 35.8589 26.5643C36.6746 24.6409 37.4927 22.7186 38.3059 20.7938C39.119 18.8685 39.9221 16.9399 40.7327 15.0138C41.4326 13.35 42.14 11.6893 42.8399 10.0253C43.9803 7.31119 45.1131 4.59409 46.2586 1.88174C46.4625 1.39966 46.679 0.918836 46.9433 0.469317C47.044 0.301688 47.2983 0.224766 47.6457 0C47.6457 0.400904 47.7036 0.638194 47.6356 0.832133C47.3838 1.54825 47.1095 2.25681 46.8124 2.95538C46.1251 4.57302 45.4127 6.18041 44.7229 7.79729C43.8846 9.76271 43.0614 11.7339 42.2306 13.7023C41.3067 15.8893 40.3727 18.0719 39.4588 20.2631C38.3436 22.9343 37.2486 25.6126 36.1434 28.2879C36.0528 28.4044 35.9621 28.5209 35.869 28.6377C35.9269 28.6705 35.9848 28.7033 36.0427 28.7359C36.0754 28.5848 36.1056 28.4337 36.1383 28.2826C36.3095 28.1283 36.526 28.002 36.6519 27.8158C39.474 23.6477 42.2734 19.4628 45.1106 15.3029C46.7697 12.8689 48.5067 10.4874 50.1682 8.05489C51.7769 5.7021 53.3301 3.3132 54.9136 0.943376C55.2258 0.476315 55.5229 -0.0483564 56.3788 0.239033C55.9056 1.00826 55.5002 1.7309 55.032 2.41268C53.7178 4.33551 52.371 6.23705 51.0493 8.15412C48.7282 11.5174 46.4071 14.8795 44.1036 18.2548C42.5251 20.571 40.9819 22.9126 39.411 25.2353C38.7715 26.1786 38.0994 27.0985 37.46 28.0401C37.3593 28.1874 37.3492 28.3954 37.2989 28.5755C37.2561 28.6429 37.2158 28.7104 37.1755 28.7777C37.2133 28.7084 37.2535 28.6392 37.2913 28.57C37.6866 28.2275 38.1019 27.9068 38.472 27.5397C47.3184 18.7424 56.1597 9.93986 65.0037 1.13907C65.3108 0.834625 65.5952 0.495615 65.9502 0.259311C66.1264 0.141058 66.4361 0.217471 67 0.19141C66.4965 0.758435 66.2095 1.11902 65.8848 1.44224C58.2014 9.09546 50.5106 16.7414 42.8297 24.3964C41.0625 26.1556 39.3279 27.9441 37.5783 29.7191C37.543 29.7852 37.5053 29.8517 37.47 29.9178C37.5103 29.8542 37.5481 29.7905 37.5884 29.7269C37.9383 29.5881 38.3285 29.5069 38.6356 29.3022C43.6329 25.9769 48.6149 22.6329 53.6045 19.2994C57.7659 16.5207 61.9298 13.7499 66.0937 10.9775C66.207 10.902 66.3354 10.8481 66.4839 10.771C66.8792 11.1147 66.8188 11.4683 66.4713 11.7214C65.6657 12.3102 64.8249 12.8524 63.9967 13.4092C62.7706 14.2323 61.5446 15.0551 60.3136 15.8717C59.4803 16.4237 58.642 16.9644 57.8062 17.5114C56.691 18.2413 55.5732 18.9674 54.463 19.7041C53.2345 20.5189 52.0135 21.3435 50.7875 22.1634C49.6798 22.9035 48.5796 23.6514 47.4669 24.3816C44.9998 25.999 42.5201 27.5941 40.0681 29.2303C39.4865 29.6181 38.9881 30.1323 38.4543 30.5883C38.3033 30.6171 38.1523 30.6457 38.0012 30.6743C38.0315 30.7341 38.0591 30.7943 38.0893 30.8541C38.2077 30.7634 38.3285 30.6723 38.4468 30.5816C39.6048 30.1491 40.7679 29.7394 41.9133 29.2796C43.8997 28.4816 45.8733 27.6497 47.8546 26.8379C49.6596 26.0977 51.4647 25.3623 53.2722 24.6307C55.3466 23.792 57.4185 22.9534 59.4954 22.1268C61.7486 21.2303 64.0068 20.3463 66.2649 19.4615C66.348 19.4292 66.4487 19.4425 66.5519 19.4335C66.8389 19.7321 66.8439 20.0048 66.4613 20.232C66.2976 20.33 66.129 20.4255 65.9502 20.4974C62.7782 21.7873 59.6087 23.0807 56.4291 24.358C54.6669 25.0671 52.8871 25.7429 51.1198 26.4437C49.6622 27.0221 48.2071 27.6149 46.752 28.2012C44.237 29.2142 41.722 30.226 39.2121 31.245C39.1366 31.2756 39.0913 31.3801 39.0309 31.4502C38.8824 31.4811 38.7313 31.5119 38.5827 31.5427C38.6105 31.6016 38.6407 31.6605 38.6683 31.7193C38.7867 31.6279 38.9075 31.5362 39.0258 31.4442C41.0247 31.3275 42.9733 30.89 44.9318 30.5119C46.4222 30.2242 47.9175 29.9699 49.4079 29.696C50.4829 29.4991 51.5578 29.3042 52.6277 29.0912C54.4403 28.7301 56.2479 28.3525 58.0605 27.9875C59.6867 27.6595 61.3156 27.329 62.9444 27.018C63.8758 26.8401 64.8123 26.6778 65.7513 26.553C66.0559 26.5126 66.3782 26.6139 66.8943 26.6738C66.5871 27.0098 66.4436 27.3059 66.2297 27.3716C65.6884 27.5379 65.1169 27.6843 64.5555 27.6895C62.7203 27.7063 61.0185 28.4109 59.2235 28.6369C57.7231 28.8258 56.2403 29.1731 54.7525 29.4593C53.0759 29.782 51.4017 30.1207 49.7251 30.4407C47.3965 30.8852 45.0653 31.3172 42.7341 31.7574C41.5483 31.982 40.3601 32.2127 39.1819 32.5953H40.5967C48.7282 32.5953 56.8621 32.595 64.9936 32.5963C65.3788 32.5963 65.7765 32.5522 66.1441 32.6344C66.3732 32.6855 66.5544 32.9363 66.8288 33.1541C66.3429 33.6322 65.842 33.4748 65.4014 33.4758C60.6358 33.4873 55.8728 33.4828 51.1072 33.4828C47.3058 33.4828 43.5045 33.4831 39.7031 33.4831H38.0717C40.6496 34.0661 42.9758 34.7351 45.3523 35.0932C48.3606 35.547 51.3036 36.3034 54.2943 36.8191C56.2605 37.1583 58.1989 37.6141 60.15 38.0108C62.1942 38.4264 64.2484 38.7998 66.2976 39.1979C66.4311 39.2237 66.5544 39.3029 66.6627 39.3493C66.8062 39.7712 66.7306 40.0764 66.2624 40.0576C65.9376 40.0451 65.623 39.8927 65.2982 39.8284C63.2968 39.432 61.2954 39.0413 59.294 38.6517C57.708 38.3438 56.1245 38.0413 54.541 37.7349C52.1192 37.2668 49.6974 36.8093 47.2807 36.3242C45.3271 35.9318 43.3836 35.4984 41.4325 35.0974C40.5112 34.9085 39.5822 34.7534 38.5954 34.7722C38.9025 34.9065 39.2096 35.0456 39.5193 35.1744C41.4527 35.9789 43.3911 36.7767 45.3245 37.5851C47.258 38.3939 49.1864 39.215 51.1198 40.0256C52.8342 40.7442 54.5486 41.4545 56.263 42.1704C58.1083 42.9416 59.9561 43.7098 61.7989 44.4903C63.2037 45.0852 64.6008 45.6963 66.0006 46.3009C66.353 46.453 66.7357 46.5805 66.6778 47.2002C66.4663 47.2002 66.2221 47.2641 66.0358 47.1889C65.2378 46.8699 64.4599 46.5009 63.6694 46.1664C61.8266 45.3873 59.9838 44.6111 58.136 43.8456C56.2428 43.0624 54.3421 42.3029 52.4515 41.5154C50.7799 40.8188 49.1285 40.0777 47.4518 39.3924C44.456 38.1676 41.4502 36.9704 38.4468 35.7614C38.3814 35.7229 38.3134 35.6838 38.248 35.6449C38.3159 35.682 38.3839 35.7191 38.4543 35.7562C39.4035 36.456 40.3299 37.1896 41.3092 37.8496C45.2566 40.5149 49.2216 43.1541 53.1791 45.8083C56.4594 48.0107 59.7346 50.2222 63.0149 52.4267C63.8833 53.0105 64.7645 53.575 65.6305 54.1656C66.0912 54.4816 66.5897 54.783 66.7331 55.3706C66.3807 55.7344 66.1038 55.582 65.8042 55.3806C64.4599 54.478 63.0979 53.5996 61.7587 52.6913C59.7849 51.3553 57.8364 49.9874 55.8602 48.6577C51.5956 45.787 47.3159 42.9363 43.0513 40.0674C41.6289 39.1113 40.2292 38.12 38.8093 37.1591C38.6231 37.0326 38.3763 36.992 38.1598 36.9118C38.0617 36.8156 37.966 36.7194 37.8703 36.6229C37.8024 36.584 37.7369 36.5452 37.6689 36.5061C37.7369 36.5437 37.8049 36.581 37.8754 36.6184C37.971 36.7141 38.0692 36.8098 38.1649 36.9055C38.5097 37.2976 38.832 37.7108 39.2021 38.0787C48.0787 46.9233 56.9603 55.7622 65.8395 64.6053C66.1692 64.9323 66.4663 65.2884 66.9874 65.8579C66.4512 65.8579 66.1441 65.9519 65.9829 65.8391C65.5927 65.5675 65.2654 65.2064 64.9256 64.8687C55.8728 55.8607 46.8199 46.8506 37.7671 37.8436C37.5305 37.6096 37.2611 37.4094 37.0069 37.1937C36.9414 37.1566 36.8759 37.12 36.8104 37.0832C36.8759 37.1213 36.9389 37.1594 37.0043 37.1974C37.4852 38.006 37.9257 38.8386 38.4494 39.6189C44.2395 48.2753 50.0423 56.9238 55.8401 65.5758C55.8904 65.6507 55.9105 65.7454 55.9508 65.8441C55.3718 66.1037 54.9791 65.9416 54.6266 65.4107C52.7637 62.6013 50.8605 59.8168 48.9975 57.0075C47.8421 55.2666 46.7495 53.4841 45.5939 51.7439C44.5165 50.1217 43.371 48.543 42.291 46.9231C40.6823 44.5136 39.1165 42.0756 37.5003 39.6712C37.11 39.0914 36.594 38.5956 36.1358 38.0614C36.0426 37.8684 35.947 37.6757 35.8513 37.4831C35.9495 37.674 36.0452 37.8647 36.1433 38.0556C36.7979 39.7289 37.4474 41.4039 38.1095 43.0747C39.2071 45.8491 40.2897 48.6289 41.4199 51.3906C42.6384 54.3738 43.9123 57.3352 45.1458 60.3129C45.9036 62.1365 46.6286 63.9724 47.3738 65.8165C46.7318 66.1054 46.4499 65.8241 46.2661 65.3881C45.8809 64.4713 45.5109 63.5474 45.1332 62.6271C44.4711 61.0045 43.8015 59.3836 43.1419 57.7594C42.145 55.3014 41.1481 52.8429 40.1613 50.3808C39.2801 48.1836 38.4191 45.9772 37.5305 43.783C36.9791 42.4212 36.3976 41.0699 35.8085 39.7241C35.6801 39.4344 35.4536 39.1884 35.2723 38.9221C35.2396 38.6845 35.2043 38.4472 35.1716 38.2095C35.1087 38.2297 35.0457 38.2503 34.9828 38.2708C35.081 38.4871 35.1766 38.7028 35.2748 38.9188Z" fill="#EF8367"/>
</svg>
