<svg width="current" height="current" viewBox="0 0 20 22" fill="none" xmlns="http://www.w3.org/2000/svg">
<path d="M7.75 19.7506L9.22297 20.5689C9.50658 20.7264 9.64838 20.8052 9.79855 20.8361C9.93146 20.8634 10.0685 20.8634 10.2015 20.8361C10.3516 20.8052 10.4934 20.7264 10.777 20.5689L12.25 19.7506M3.25 17.2506L1.82297 16.4578C1.52346 16.2914 1.37368 16.2082 1.26463 16.0898C1.16816 15.9851 1.09515 15.8611 1.05048 15.7259C1 15.5731 1 15.4018 1 15.0591V13.5006M1 8.50057V6.94202C1 6.59938 1 6.42806 1.05048 6.27526C1.09515 6.14008 1.16816 6.016 1.26463 5.91131C1.37368 5.79297 1.52345 5.70977 1.82297 5.54337L3.25 4.75057M7.75 2.25057L9.22297 1.43226C9.50658 1.2747 9.64838 1.19592 9.79855 1.16503C9.93146 1.1377 10.0685 1.1377 10.2015 1.16503C10.3516 1.19592 10.4934 1.2747 10.777 1.43225L12.25 2.25057M16.75 4.75057L18.177 5.54337C18.4766 5.70977 18.6263 5.79297 18.7354 5.91131C18.8318 6.016 18.9049 6.14008 18.9495 6.27526C19 6.42805 19 6.59937 19 6.94202V8.50057M19 13.5006V15.0591C19 15.4018 19 15.5731 18.9495 15.7259C18.9049 15.8611 18.8318 15.9851 18.7354 16.0898C18.6263 16.2082 18.4766 16.2914 18.177 16.4578L16.75 17.2506M7.75 9.75057L10 11.0006M10 11.0006L12.25 9.75057M10 11.0006V13.5006M1 6.00057L3.25 7.25057M16.75 7.25057L19 6.00057M10 18.5006V21.0006" stroke="#080908" strokeWidth="current" stroke-linecap="round" stroke-linejoin="round"/>
</svg>
