<svg width="48" height="48" viewBox="0 0 48 48" fill="none" xmlns="http://www.w3.org/2000/svg">
<g id="book-open-02">
<path id="Icon" d="M24 40H10.4C8.15979 40 7.03968 40 6.18404 39.564C5.43139 39.1805 4.81947 38.5686 4.43597 37.816C4 36.9603 4 35.8402 4 33.6V14.4C4 12.1598 4 11.0397 4.43597 10.184C4.81947 9.43139 5.43139 8.81947 6.18404 8.43597C7.03968 8 8.15979 8 10.4 8H11.2C15.6804 8 17.9206 8 19.6319 8.87195C21.1372 9.63893 22.3611 10.8628 23.1281 12.3681C24 14.0794 24 16.3196 24 20.8M24 40V20.8M24 40H37.6C39.8402 40 40.9603 40 41.816 39.564C42.5686 39.1805 43.1805 38.5686 43.564 37.816C44 36.9603 44 35.8402 44 33.6V14.4C44 12.1598 44 11.0397 43.564 10.184C43.1805 9.43139 42.5686 8.81947 41.816 8.43597C40.9603 8 39.8402 8 37.6 8H36.8C32.3196 8 30.0794 8 28.3681 8.87195C26.8628 9.63893 25.6389 10.8628 24.8719 12.3681C24 14.0794 24 16.3196 24 20.8" stroke="#D25130" stroke-width="2.5" stroke-linecap="round" stroke-linejoin="round"/>
</g>
</svg>
