<svg width="30" height="30" viewBox="0 0 30 30" fill="none" xmlns="http://www.w3.org/2000/svg">
<g id="file-attachment-04">
<path id="Icon" d="M25 8.75V8.5C25 6.3998 25 5.3497 24.5913 4.54754C24.2317 3.84193 23.6581 3.26825 22.9525 2.90873C22.1503 2.5 21.1002 2.5 19 2.5H11C8.8998 2.5 7.8497 2.5 7.04754 2.90873C6.34193 3.26825 5.76825 3.84193 5.40873 4.54754C5 5.3497 5 6.3998 5 8.5V21.5C5 23.6002 5 24.6503 5.40873 25.4525C5.76825 26.1581 6.34193 26.7317 7.04754 27.0913C7.8497 27.5 8.8998 27.5 11 27.5H15.625M15.625 13.75H10M14.375 18.75H10M20 8.75H10M22.5 22.5V15.625C22.5 14.5895 23.3395 13.75 24.375 13.75C25.4105 13.75 26.25 14.5895 26.25 15.625V22.5C26.25 24.5711 24.5711 26.25 22.5 26.25C20.4289 26.25 18.75 24.5711 18.75 22.5V17.5" stroke="#D25130" stroke-width="2" stroke-linecap="round" stroke-linejoin="round"/>
</g>
</svg>
