<svg width="22" height="22" viewBox="0 0 22 22" fill="none" xmlns="http://www.w3.org/2000/svg">
<path d="M12 18.0005H16.2942C18.1594 18.0005 19.092 18.0005 19.6215 17.6097C20.0832 17.2689 20.3763 16.7464 20.4263 16.1748C20.4836 15.5191 19.9973 14.7234 19.0247 13.1318L18.0278 11.5005M5.13014 9.6057L2.97528 13.1318C2.00267 14.7234 1.51637 15.5191 1.57372 16.1748C1.62372 16.7464 1.91681 17.2689 2.37846 17.6097C2.90799 18.0005 3.84059 18.0005 5.70578 18.0005H7.5M15.8889 8.00048L13.7305 4.46857C12.8277 2.99128 12.3763 2.25263 11.7952 2.00082C11.2879 1.78098 10.7121 1.78098 10.2048 2.00082C9.62369 2.25263 9.17229 2.99128 8.2695 4.46857L7.24967 6.13738M17 4.00055L15.9019 8.09862L11.8038 7.00055M1 10.5986L5.09808 9.50048L6.19615 13.5986M14.5 21.0005L11.5 18.0005L14.5 15.0005" stroke="#080908" strokeWidth="2" stroke-linecap="round" stroke-linejoin="round"/>
</svg>
