<svg width="30" height="30" viewBox="0 0 30 30" fill="none" xmlns="http://www.w3.org/2000/svg">
<g id="message-notification-square">
<path id="Icon" d="M13.75 5H9.75C7.6498 5 6.5997 5 5.79754 5.40873C5.09193 5.76825 4.51825 6.34193 4.15873 7.04754C3.75 7.8497 3.75 8.8998 3.75 11V17.5C3.75 18.6625 3.75 19.2437 3.87778 19.7206C4.22453 21.0147 5.23533 22.0255 6.52943 22.3722C7.0063 22.5 7.58754 22.5 8.75 22.5V25.4194C8.75 26.0854 8.75 26.4185 8.88654 26.5895C9.00528 26.7383 9.18534 26.8248 9.37567 26.8246C9.59453 26.8244 9.85459 26.6163 10.3747 26.2002L13.3565 23.8148C13.9656 23.3275 14.2702 23.0838 14.6094 22.9106C14.9102 22.7568 15.2305 22.6445 15.5615 22.5766C15.9346 22.5 16.3246 22.5 17.1047 22.5H19C21.1002 22.5 22.1503 22.5 22.9525 22.0913C23.6581 21.7317 24.2317 21.1581 24.5913 20.4525C25 19.6503 25 18.6002 25 16.5V16.25M25.1517 4.84835C26.6161 6.31282 26.6161 8.68718 25.1517 10.1517C23.6872 11.6161 21.3128 11.6161 19.8483 10.1517C18.3839 8.68718 18.3839 6.31282 19.8483 4.84835C21.3128 3.38388 23.6872 3.38388 25.1517 4.84835Z" stroke="#595959" stroke-width="2" stroke-linecap="round" stroke-linejoin="round"/>
</g>
</svg>
