<svg width="48" height="48" viewBox="0 0 48 48" fill="none" xmlns="http://www.w3.org/2000/svg">
<g id="piggy-bank-01">
<path id="Icon" d="M9.99986 26C9.99986 29.2968 11.3293 32.283 13.4813 34.4519C13.6889 34.6611 13.7927 34.7657 13.8539 34.8663C13.9124 34.9622 13.9464 35.0448 13.9725 35.1541C13.9999 35.2687 13.9999 35.399 13.9999 35.6597V40.4C13.9999 40.9601 13.9999 41.2401 14.1089 41.454C14.2047 41.6422 14.3577 41.7951 14.5459 41.891C14.7598 42 15.0398 42 15.5999 42H19.3999C19.9599 42 20.2399 42 20.4539 41.891C20.642 41.7951 20.795 41.6422 20.8909 41.454C20.9999 41.2401 20.9999 40.9601 20.9999 40.4V39.6C20.9999 39.0399 20.9999 38.7599 21.1089 38.546C21.2047 38.3578 21.3577 38.2049 21.5459 38.109C21.7598 38 22.0398 38 22.5999 38H25.3999C25.9599 38 26.2399 38 26.4539 38.109C26.642 38.2049 26.795 38.3578 26.8909 38.546C26.9999 38.7599 26.9999 39.0399 26.9999 39.6V40.4C26.9999 40.9601 26.9999 41.2401 27.1089 41.454C27.2047 41.6422 27.3577 41.7951 27.5459 41.891C27.7598 42 28.0398 42 28.5999 42H32.4C32.9601 42 33.2401 42 33.454 41.891C33.6422 41.7951 33.7951 41.6422 33.891 41.454C34 41.2401 34 40.9601 34 40.4V38.4487C34 38.0445 34 37.8425 34.0575 37.6803C34.1127 37.5248 34.1821 37.416 34.2999 37.3005C34.4228 37.18 34.631 37.0834 35.0474 36.89C37.0118 35.978 38.6881 34.5501 39.9022 32.7803C40.1157 32.4691 40.2225 32.3135 40.3365 32.2216C40.4455 32.1337 40.5433 32.0822 40.6775 32.042C40.8178 32 40.9844 32 41.3175 32H42.4C42.9601 32 43.2401 32 43.454 31.891C43.6422 31.7951 43.7951 31.6422 43.891 31.454C44 31.2401 44 30.9601 44 30.4V23.5715C44 23.0383 44 22.7717 43.9009 22.5661C43.8027 22.362 43.638 22.1973 43.4339 22.0991C43.2283 22 42.9617 22 42.4285 22C42.0426 22 41.8496 22 41.6942 21.9476C41.5266 21.8911 41.4091 21.816 41.2875 21.6875C41.1747 21.5684 41.0826 21.3693 40.8985 20.9709C40.3076 19.6924 39.4983 18.5355 38.5185 17.5481C38.311 17.3389 38.2072 17.2343 38.1459 17.1337C38.0875 17.0378 38.0535 16.9552 38.0274 16.8459C38 16.7313 38 16.601 38 16.3404V14.1212C38 13.4011 38 13.041 37.85 12.799C37.7187 12.587 37.5129 12.4318 37.2729 12.3637C36.999 12.286 36.6528 12.3849 35.9605 12.5827L31.2153 13.9384C31.1347 13.9615 31.0944 13.973 31.0534 13.9811C31.017 13.9883 30.9802 13.9934 30.9432 13.9965C30.9016 14 30.8596 14 30.7758 14H29.9181M9.99986 26C9.99986 21.3919 12.5973 17.3904 16.4079 15.3798M9.99986 26H8C5.79086 26 4 24.2091 4 22C4 20.5194 4.8044 19.2267 6 18.5351M30 13C30 16.866 26.866 20 23 20C19.134 20 16 16.866 16 13C16 9.13401 19.134 6 23 6C26.866 6 30 9.13401 30 13Z" stroke="#D25130" stroke-width="2.5" stroke-linecap="round" stroke-linejoin="round"/>
</g>
</svg>
