<svg width="30" height="30" viewBox="0 0 30 30" fill="none" xmlns="http://www.w3.org/2000/svg">
<g id="play-square">
<g id="Icon">
<path d="M11.875 11.2067C11.875 10.6101 11.875 10.3118 11.9997 10.1452C12.1083 10.0001 12.2746 9.90929 12.4555 9.89638C12.663 9.88156 12.9139 10.0429 13.4158 10.3655L19.3165 14.1588C19.752 14.4388 19.9697 14.5788 20.0449 14.7567C20.1106 14.9123 20.1106 15.0877 20.0449 15.2433C19.9697 15.4212 19.752 15.5612 19.3165 15.8412L13.4158 19.6345C12.9139 19.9571 12.663 20.1184 12.4555 20.1036C12.2746 20.0907 12.1083 19.9999 11.9997 19.8548C11.875 19.6882 11.875 19.3899 11.875 18.7933V11.2067Z" stroke="#595959" stroke-width="2" stroke-linecap="round" stroke-linejoin="round"/>
<path d="M3.75 9.75C3.75 7.6498 3.75 6.5997 4.15873 5.79754C4.51825 5.09193 5.09193 4.51825 5.79754 4.15873C6.5997 3.75 7.6498 3.75 9.75 3.75H20.25C22.3502 3.75 23.4003 3.75 24.2025 4.15873C24.9081 4.51825 25.4817 5.09193 25.8413 5.79754C26.25 6.5997 26.25 7.6498 26.25 9.75V20.25C26.25 22.3502 26.25 23.4003 25.8413 24.2025C25.4817 24.9081 24.9081 25.4817 24.2025 25.8413C23.4003 26.25 22.3502 26.25 20.25 26.25H9.75C7.6498 26.25 6.5997 26.25 5.79754 25.8413C5.09193 25.4817 4.51825 24.9081 4.15873 24.2025C3.75 23.4003 3.75 22.3502 3.75 20.25V9.75Z" stroke="#595959" stroke-width="2" stroke-linecap="round" stroke-linejoin="round"/>
</g>
</g>
</svg>
