<svg width="45" height="44" viewBox="0 0 45 44" fill="none" xmlns="http://www.w3.org/2000/svg">
<path d="M4.33594 31.1667V30.8913C4.33594 30.3111 4.33594 30.021 4.38032 29.7383C4.41972 29.4874 4.4851 29.2412 4.5754 29.0037C4.6771 28.7363 4.82104 28.4844 5.10891 27.9806L11.6693 16.5M4.33594 31.1667C4.33594 35.2168 7.61918 38.5 11.6693 38.5C15.7194 38.5 19.0026 35.2168 19.0026 31.1667M4.33594 31.1667V30.8C4.33594 30.2866 4.33594 30.0299 4.43585 29.8338C4.52373 29.6614 4.66396 29.5211 4.83645 29.4332C5.03253 29.3333 5.28922 29.3333 5.8026 29.3333H17.5359C18.0493 29.3333 18.306 29.3333 18.5021 29.4332C18.6746 29.5211 18.8148 29.6614 18.9027 29.8338C19.0026 30.0299 19.0026 30.2866 19.0026 30.8V31.1667M11.6693 16.5L18.2296 27.9806C18.5175 28.4844 18.6614 28.7363 18.7631 29.0037C18.8534 29.2412 18.9188 29.4874 18.9582 29.7383C19.0026 30.021 19.0026 30.3111 19.0026 30.8913V31.1667M11.6693 16.5L33.6693 12.8333M26.3359 27.5V27.2246C26.3359 26.6444 26.3359 26.3543 26.3803 26.0716C26.4197 25.8207 26.4851 25.5745 26.5754 25.3371C26.6771 25.0696 26.821 24.8177 27.1089 24.314L33.6693 12.8333M26.3359 27.5C26.3359 31.5501 29.6192 34.8333 33.6693 34.8333C37.7194 34.8333 41.0026 31.5501 41.0026 27.5M26.3359 27.5V27.1333C26.3359 26.62 26.3359 26.3633 26.4358 26.1672C26.5237 25.9947 26.664 25.8545 26.8364 25.7666C27.0325 25.6667 27.2892 25.6667 27.8026 25.6667H39.5359C40.0493 25.6667 40.306 25.6667 40.5021 25.7666C40.6746 25.8545 40.8148 25.9947 40.9027 26.1672C41.0026 26.3633 41.0026 26.62 41.0026 27.1333V27.5M33.6693 12.8333L40.2296 24.314C40.5175 24.8177 40.6614 25.0696 40.7631 25.3371C40.8534 25.5745 40.9188 25.8207 40.9582 26.0716C41.0026 26.3543 41.0026 26.6444 41.0026 27.2246V27.5M22.6693 5.5V14.6667" stroke="#D25130" stroke-width="3" stroke-linecap="round" stroke-linejoin="round"/>
</svg>
