<svg width="108" height="54" viewBox="0 0 108 54" fill="none" xmlns="http://www.w3.org/2000/svg">
<g id="Vector">
<path d="M58.9783 45.8843C58.9441 45.8405 58.9098 45.7968 58.8755 45.7536C58.835 45.79 58.7665 45.8227 58.7603 45.8639C58.7541 45.9006 58.8226 45.9465 58.8568 45.988C58.8973 45.9536 58.9378 45.9191 58.9783 45.8843ZM48.3394 44.5643C48.3051 44.5197 48.2709 44.4747 48.2366 44.4301C48.193 44.4683 48.1245 44.5031 48.1182 44.5456C48.1152 44.5834 48.1806 44.63 48.2148 44.6731C48.2584 44.6368 48.2989 44.6007 48.3394 44.5643ZM49.2364 42.8095C49.199 42.7642 49.1647 42.719 49.1305 42.6737C49.1211 42.7581 49.1149 42.8428 49.1056 42.9275C49.1491 42.8884 49.1928 42.849 49.2364 42.8095ZM50.7562 43.3436C50.8465 43.3369 50.9368 43.3298 51.0272 43.3227C51.0023 42.9925 50.9774 42.6626 50.9493 42.3324C50.859 42.3389 50.7656 42.3453 50.6721 42.3521C50.7001 42.6826 50.7282 43.0131 50.7562 43.3436ZM62.1923 46.97C62.264 46.8576 62.3357 46.7446 62.4042 46.6322C62.3326 46.7437 62.2609 46.8545 62.1893 46.9654C62.1176 47.0763 62.0491 47.1869 61.9806 47.2975C62.0522 47.1885 62.1208 47.0791 62.1923 46.97ZM41.3475 49.5994C40.1204 49.0653 38.9182 48.448 37.6538 48.0155C35.6107 47.3175 33.5178 46.7634 31.4592 46.1088C26.448 44.5157 21.4431 42.9031 16.4383 41.2925C12.3241 39.9692 8.21308 38.6416 4.10516 37.3023C3.8404 37.2167 3.61617 37.0171 3.32031 36.8406C3.59438 36.0237 4.08641 35.849 4.81518 36.1111C5.76506 36.4518 6.71502 36.7944 7.67428 37.1085C11.0285 38.2076 14.3858 39.3134 17.7525 40.382C21.9383 41.7111 26.1428 42.9839 30.3287 44.3207C34.175 45.5491 37.9995 46.8361 41.8396 48.0789C42.2445 48.2105 42.6929 48.2176 43.1227 48.2826C43.3438 48.4165 43.565 48.5512 43.7861 48.6855C43.8266 48.5927 43.8671 48.5007 43.9075 48.4082C43.646 48.367 43.3843 48.3257 43.1227 48.2844C41.5499 47.4226 39.9989 46.5169 38.3981 45.7087C35.6854 44.3392 32.9198 43.0784 30.2196 41.6861C25.9123 39.4634 21.6581 37.1356 17.3445 34.9225C15.233 33.8385 13.0186 32.9514 10.8883 31.9023C9.3373 31.1384 7.84559 30.2549 6.32883 29.4245C6.68699 28.765 6.94551 28.3806 7.60266 28.7188C9.47755 29.6842 11.368 30.6252 13.2584 31.5653C14.4793 32.174 15.7251 32.7404 16.9397 33.3657C19.6368 34.7546 22.3059 36.2026 25.0154 37.5641C29.55 39.8426 34.1096 42.0755 38.6629 44.3204C40.273 45.1136 41.687 46.33 43.5681 46.5271C43.6833 46.5961 43.7985 46.6654 43.9138 46.7341C43.7954 46.6666 43.6802 46.5986 43.565 46.5305C41.9642 45.3166 40.3758 44.0857 38.7594 42.893C36.5481 41.2598 34.3089 39.6581 32.0852 38.0385C30.9142 37.1856 29.7618 36.3068 28.5814 35.4702C26.3329 33.8823 24.0593 32.3323 21.82 30.7373C19.3409 28.9729 16.893 27.17 14.4232 25.3961C13.6011 24.8065 12.7415 24.2721 11.9224 23.6798C11.4085 23.3077 10.8354 22.9485 10.7545 22.2548C11.6265 21.53 12.2525 22.2367 12.7975 22.5595C13.981 23.2581 15.0617 24.1243 16.1766 24.9307C20.051 27.7297 23.9191 30.5365 27.7935 33.3324C31.0231 35.662 34.2653 37.9722 37.4918 40.3068C39.837 42.0059 42.1604 43.7373 44.5118 45.4327C44.7267 45.5882 45.0599 45.5852 45.3371 45.6557C45.4835 45.8039 45.6299 45.9517 45.7762 46.0999C45.8915 46.1667 46.0036 46.2335 46.1188 46.3004C46.0098 46.2274 45.9039 46.1541 45.7949 46.0811C45.6454 45.9366 45.4959 45.7924 45.3433 45.648C44.8606 45.1077 44.4028 44.5413 43.8889 44.0318C35.0844 35.3109 26.2705 26.5983 17.4629 17.8796C16.9584 17.3794 16.4881 16.8437 16.0209 16.3438C16.457 15.6042 16.9428 15.7154 17.3726 16.0515C17.8335 16.4106 18.226 16.8557 18.6433 17.2685C27.1426 25.673 35.6388 34.0803 44.1411 42.479C44.655 42.9854 45.2374 43.425 45.7856 43.8956C45.932 44.0422 46.0784 44.1889 46.2278 44.3355C46.3399 44.4051 46.452 44.4741 46.5642 44.5437C46.452 44.4747 46.3399 44.4057 46.2278 44.3364C46.0784 44.1904 45.9289 44.0447 45.7824 43.899C45.6641 43.5694 45.6174 43.1893 45.4181 42.9186C43.6615 40.5378 41.88 38.1765 40.1079 35.8096C38.8964 34.1943 37.6662 32.5929 36.4797 30.9609C34.8259 28.6905 33.2282 26.3818 31.5651 24.1175C28.9645 20.5718 26.3297 17.0504 23.7105 13.5161C23.2371 12.8775 22.7294 12.2553 22.3494 11.5641C22.2311 11.3467 22.4896 10.928 22.5737 10.6018C22.9038 10.6875 23.3772 10.665 23.5361 10.8757C25.4514 13.4064 27.3107 15.9772 29.1981 18.5268C31.6429 21.8288 34.122 25.1069 36.545 28.4243C37.7753 30.108 38.8871 31.8782 40.1079 33.5693C42.1323 36.3751 44.1972 39.1539 46.2683 41.928C46.4708 42.2021 46.8289 42.3653 47.1154 42.5797C47.2618 42.8727 47.4113 43.1656 47.729 43.5679C47.8505 43.6122 47.8068 43.559 47.7632 43.5057C47.7103 43.5574 47.6605 43.6092 47.6106 43.6609C47.6605 43.7071 47.7072 43.7786 47.7664 43.7909C47.8006 43.7986 47.8567 43.717 47.729 43.5679C47.4082 43.1668 47.2618 42.8751 47.1123 42.5831C47.0469 42.3053 47.0376 42 46.9068 41.7546C45.1316 38.3582 43.3065 34.9884 41.5686 31.5739C40.3633 29.2104 39.3387 26.7582 38.1272 24.3984C36.025 20.2924 33.8324 16.2311 31.6896 12.1442C30.7896 10.4244 29.9238 8.68715 28.9178 6.71793C29.0798 6.59966 29.3632 6.39173 29.6154 6.2069C29.8304 6.26543 30.039 6.26083 30.0888 6.34583C31.9388 9.5912 33.5863 12.9361 35.2245 16.2936C37.3455 20.6396 39.7965 24.8287 42.07 29.102C42.506 29.922 42.7365 30.8494 43.1663 31.6737C43.8359 32.9529 44.6395 34.1629 45.3029 35.444C46.424 37.6116 47.4829 39.8124 48.7941 42.4556C48.7941 41.5312 48.9436 41.0165 48.7692 40.6521C47.2213 37.395 46.4676 33.8789 45.3247 30.4903C43.9574 26.4274 42.5217 22.3824 41.3101 18.2733C40.3197 14.9167 38.7345 11.757 38.1396 8.26394C37.9029 6.88304 37.0745 5.60811 36.6136 4.25249C36.5139 3.95924 36.8347 3.52738 37.0153 2.99387C38.2985 4.36306 38.6411 5.93032 39.1269 7.38945C40.6654 12 42.0856 16.6481 43.5867 21.2698C44.9353 25.4174 46.3306 29.5502 47.7134 33.687C48.5948 36.3249 49.4918 38.9583 50.532 41.5685C50.2143 37.0922 49.1772 32.7164 48.682 28.2644C48.1868 23.7987 47.1808 19.3899 46.4521 14.9469C45.7264 10.511 45.0661 6.06429 44.3561 1.46791C44.8762 1.42508 45.2094 1.39798 45.7046 1.35702C47.8566 14.8129 49.9963 28.1868 52.1359 41.5608C52.2324 41.5552 52.3322 41.5494 52.4286 41.5438V1H53.7772V43.2974C53.852 43.2996 53.9298 43.3017 54.0046 43.3039C54.2163 41.7749 54.4063 40.2418 54.6492 38.7177C55.1133 35.8222 55.6178 32.9332 56.0912 30.0399C56.3591 28.4166 56.5989 26.789 56.8636 25.1654C57.3681 22.062 57.8851 18.9596 58.3991 15.8571C58.6201 14.516 58.9627 13.1822 59.0437 11.8334C59.1558 9.96085 59.5171 8.14626 59.8939 6.31996C60.1556 5.05797 60.2489 3.76149 60.414 2.47977C60.495 1.83692 60.7691 1.39184 61.6412 1.41709C61.6816 1.90899 61.8187 2.41231 61.747 2.88513C61.5227 4.36674 61.1895 5.83175 60.959 7.31304C60.7411 8.73181 60.6539 10.1715 60.4172 11.5866C59.8939 14.6854 59.2897 17.7706 58.7665 20.869C58.5267 22.2835 58.3991 23.7167 58.2122 25.1405C57.91 27.4146 57.6671 29.6977 57.281 31.958C56.9602 33.8533 56.3964 35.7086 56.0819 37.6048C55.8202 39.1976 55.7612 40.8237 55.7456 42.4353C59.9843 29.5455 64.223 16.6549 68.4773 3.76856C68.5396 3.57911 68.7545 3.43959 68.9507 3.22181C69.6484 3.39092 69.9442 3.92845 69.6826 4.48287C68.5427 6.89166 68.2375 9.55455 67.1599 12.0028C66.101 14.4097 65.5902 17.0461 64.7525 19.555C63.5347 23.2162 62.0148 26.7952 61.0463 30.5171C60.1992 33.7763 58.6077 36.7907 58.0782 40.1439C57.9505 40.953 57.1937 41.6449 57.3121 42.5816C57.1813 42.8012 57.0474 43.0208 56.9135 43.2405C57.0038 43.2787 57.0972 43.3168 57.1875 43.3553C57.2312 43.0975 57.2716 42.8394 57.3121 42.5816C57.5955 42.1836 57.9287 41.8121 58.1499 41.3828C59.5887 38.5646 60.9839 35.7237 62.4322 32.9098C63.8119 30.23 65.2694 27.5886 66.6429 24.9051C69.4677 19.3846 72.2489 13.8432 75.0706 8.32214C75.4568 7.56686 75.9799 6.88028 76.525 6.02857C76.8987 6.39111 77.1043 6.59257 77.4313 6.90861C75.6747 10.2073 73.9432 13.445 72.2271 16.6891C71.9592 17.1952 71.7631 17.7385 71.5077 18.2514C71.0623 19.1496 70.6014 20.0423 70.1311 20.9278C69.8913 21.3733 69.586 21.7832 69.3587 22.2339C67.0945 26.7391 64.8427 31.2517 62.5817 35.7581C61.6785 37.5533 60.7504 39.335 59.8535 41.1323C59.6978 41.4453 59.6355 41.8047 59.5296 42.1432C58.9658 42.3573 58.5952 42.6786 58.8786 43.8485C59.2057 42.9906 59.3676 42.5671 59.5296 42.1432C60.0216 41.7172 60.6103 41.3621 60.9871 40.8532C62.4416 38.88 63.815 36.8477 65.2477 34.8569C67.0571 32.3424 68.8884 29.8415 70.7228 27.3453C72.4326 25.0182 74.1705 22.7113 75.8803 20.3836C78.1009 17.3624 80.2903 14.3194 82.5265 11.3097C82.9469 10.7417 83.492 10.146 84.3983 10.9358C83.2491 12.5939 82.1403 14.2603 80.963 15.879C79.3093 18.1547 77.5995 20.3901 75.924 22.651C73.5196 25.8976 71.1308 29.1562 68.7234 32.401C66.2318 35.7631 63.7153 39.1104 61.23 42.4787C61.0307 42.7498 60.9809 43.1299 60.8626 43.4595C60.713 43.6058 60.5666 43.7521 60.4172 43.8981C60.3518 44.0111 60.2832 44.1248 60.2178 44.2378C60.2832 44.1242 60.3518 44.0105 60.4172 43.8966C60.5635 43.7506 60.713 43.6039 60.8594 43.4579C61.4543 43.5297 61.7813 43.1693 62.1394 42.7658C62.7468 42.0755 63.4413 41.4591 64.0704 40.7827C64.606 40.2055 65.0016 39.4622 65.6245 39.0143C66.8173 38.1558 67.6488 36.981 68.6641 35.9728C75.0674 29.6185 81.4863 23.2778 87.9082 16.9411C88.3162 16.5369 88.7679 16.1565 89.2599 15.8648C89.425 15.7681 89.8205 15.9261 90.0261 16.0786C90.1475 16.1664 90.188 16.5268 90.1039 16.6764C89.8984 17.0479 89.6368 17.4093 89.3284 17.7041C87.0456 19.8892 84.7191 22.0331 82.4581 24.2404C81.2807 25.3887 80.2374 26.6698 79.0757 27.836C77.6493 29.2686 76.1482 30.627 74.7124 32.0495C73.2362 33.5102 71.8129 35.0223 70.3429 36.4891C68.007 38.8206 65.6464 41.1277 63.3105 43.4589C62.9025 43.8642 62.563 44.3349 62.1923 44.7757C62.046 44.922 61.8965 45.0683 61.7501 45.2146C61.6007 45.3606 61.4543 45.5069 61.3048 45.6536C61.2332 45.7641 61.1615 45.875 61.0899 45.9859C61.1615 45.8738 61.2332 45.762 61.3017 45.6502C61.4511 45.5038 61.5975 45.3578 61.747 45.2118C61.8933 45.0655 62.0429 44.9195 62.1893 44.7732C62.9492 44.3805 63.7683 44.0721 64.4566 43.5796C67.4589 41.4206 70.4269 39.2105 73.4043 37.0152C75.1546 35.724 76.8053 34.2728 78.6709 33.1701C80.7482 31.9417 82.5545 30.3849 84.5198 29.0259C87.6809 26.8411 90.8016 24.6032 93.916 22.3574C94.4455 21.9755 94.8815 21.7947 95.6227 22.3549C95.0715 22.9297 94.6728 23.6037 94.0811 23.9179C91.6798 25.1925 89.8174 27.1817 87.5657 28.6344C83.1152 31.5071 78.9885 34.8218 74.6127 37.7939C71.436 39.9507 68.3901 42.3004 65.2913 44.5696C64.5563 45.1068 63.8399 45.6668 63.2264 46.3953C66.3657 45.1145 69.3089 43.4829 72.3112 41.9741C75.3726 40.4377 78.431 38.8994 81.4988 37.3815C84.554 35.8706 87.6685 34.4687 90.6708 32.8633C93.617 31.2881 96.5477 29.7125 99.9579 28.3368C99.6932 29.6546 99.0766 30.0532 98.3291 30.4034C96.8124 31.1153 95.3112 31.8634 93.8257 32.6357C91.194 34.0027 88.5965 35.4412 85.9492 36.7731C81.6015 38.958 77.2133 41.0639 72.8593 43.238C70.4051 44.4648 67.9914 45.778 65.5435 47.0203C64.5033 47.547 63.4226 47.9924 62.4603 48.7489C63.2077 48.5459 63.9769 48.4086 64.6932 48.1298C69.5393 46.2419 74.5442 44.8536 79.5304 43.3954C81.1219 42.93 82.6324 42.1996 84.2177 41.7019C88.5498 40.3404 92.91 39.0608 97.2453 37.7003C98.6219 37.2681 99.9611 36.7078 101.297 36.1574C101.945 35.8912 102.428 35.9645 102.92 36.6826C102.611 36.8963 102.328 37.1976 101.982 37.314C98.0177 38.6468 94.0468 39.963 90.0696 41.2608C86.3043 42.4898 82.5296 43.6899 78.7581 44.9063C73.7532 46.5213 68.7483 48.1402 63.4257 49.8606C64.0735 49.9274 64.4535 50.058 64.7867 49.9869C67.5461 49.3995 70.318 48.9248 73.1365 48.6753C75.2201 48.4911 77.2818 48.0432 79.3498 47.6887C80.6267 47.4694 81.8974 47.1986 83.1743 46.9627C84.7315 46.674 86.2857 46.3466 87.8553 46.1319C89.1478 45.9548 90.4434 45.9822 91.7577 45.7028C95.2148 44.9663 98.7246 44.4655 102.222 43.9252C103.001 43.8051 103.814 43.9076 104.642 43.9076C104.782 44.8018 104.356 45.1056 103.726 45.2038C100.796 45.6603 97.8558 46.066 94.9313 46.557C92.7294 46.9263 90.5618 47.5359 88.3505 47.7765C86.759 47.9496 85.1582 47.9807 83.573 48.2856C81.5143 48.6814 79.437 48.9664 77.3722 49.3338C76.3132 49.5224 75.2761 49.8513 74.211 49.9989C72.6257 50.2182 71.0249 50.3164 69.4366 50.4963C68.141 50.6433 66.8422 50.8053 65.556 51.016C64.7805 51.1426 64.0237 51.3751 62.7592 51.6801C63.8462 51.7275 64.4597 51.7768 65.0702 51.7771C77.7054 51.7817 90.3437 51.7805 102.979 51.7817C103.571 51.7817 104.194 51.6829 104.739 51.84C105.122 51.9496 105.396 52.4191 106 53H1.07474C1.05296 52.6741 1.03426 52.3473 1 51.8329H43.3408C43.35 51.7177 43.3594 51.6025 43.3687 51.4873C40.9302 51.1518 38.4947 50.8253 36.0592 50.4785C33.9102 50.1726 31.7612 49.8723 29.6217 49.5165C28.4164 49.316 27.2391 48.9451 26.0307 48.7618C23.1001 48.3171 20.1663 47.8507 17.2293 47.4718C13.8533 47.0366 10.524 46.4362 7.204 45.7219C5.79004 45.4179 4.32003 45.3446 2.87178 45.2355C2.13993 45.1804 1.58552 45.0316 1.47963 44.1082C2.30808 43.6899 3.21751 43.8174 4.03969 43.9264C5.9707 44.1824 7.87981 44.5887 9.79204 44.9509C10.8541 45.1524 11.9006 45.4432 12.9688 45.5935C14.4824 45.8066 16.0147 45.8799 17.5252 46.098C19.8828 46.4378 22.2311 46.8407 24.5794 47.2328C26.5757 47.5658 28.5721 47.8997 30.5591 48.2724C33.4026 48.8056 36.3208 48.8117 39.1394 49.5402C39.8339 49.7198 40.6094 49.5877 41.3475 49.5991C41.6403 50.2499 42.0888 50.0851 42.7926 49.7195C42.1635 49.6671 41.7554 49.6329 41.3475 49.5994Z" fill="#FBD6CD"/>
<path d="M47.729 43.5679C47.4113 43.1656 47.2618 42.8727 47.1154 42.5797C46.8289 42.3653 46.4708 42.2021 46.2683 41.928C44.1972 39.1539 42.1323 36.3751 40.1079 33.5693C38.8871 31.8782 37.7753 30.108 36.545 28.4243C34.122 25.1069 31.6429 21.8288 29.1981 18.5268C27.3107 15.9772 25.4514 13.4064 23.5361 10.8757C23.3772 10.665 22.9038 10.6875 22.5737 10.6018C22.4896 10.928 22.2311 11.3467 22.3494 11.5641C22.7294 12.2553 23.2371 12.8775 23.7105 13.5161C26.3297 17.0504 28.9645 20.5718 31.5651 24.1175C33.2282 26.3818 34.8259 28.6904 36.4797 30.9609C37.6662 32.5929 38.8964 34.1943 40.1079 35.8096C41.88 38.1765 43.6615 40.5378 45.4181 42.9186C45.6174 43.1893 45.6641 43.5694 45.7824 43.899C45.9289 44.0447 46.0784 44.1904 46.2278 44.3364C46.3399 44.4057 46.452 44.4747 46.5642 44.5437C46.452 44.4741 46.3399 44.4051 46.2278 44.3355C46.0784 44.1889 45.932 44.0422 45.7856 43.8956C45.2374 43.425 44.655 42.9854 44.1411 42.479C35.6388 34.0803 27.1426 25.673 18.6433 17.2685C18.226 16.8557 17.8335 16.4106 17.3726 16.0515C16.9428 15.7154 16.457 15.6042 16.0209 16.3438C16.4881 16.8437 16.9584 17.3794 17.4629 17.8796C26.2705 26.5983 35.0844 35.3109 43.8889 44.0318C44.4028 44.5413 44.8606 45.1077 45.3433 45.648C45.4959 45.7924 45.6454 45.9366 45.7949 46.0811C45.9039 46.1541 46.0098 46.2274 46.1188 46.3004C46.0036 46.2335 45.8915 46.1667 45.7762 46.0999C45.6299 45.9517 45.4835 45.8039 45.3371 45.6557C45.0599 45.5852 44.7267 45.5882 44.5118 45.4327C42.1604 43.7373 39.837 42.0059 37.4918 40.3068C34.2653 37.9722 31.0231 35.662 27.7935 33.3324C23.9191 30.5365 20.051 27.7297 16.1766 24.9307C15.0617 24.1243 13.981 23.2581 12.7975 22.5595C12.2525 22.2367 11.6265 21.53 10.7545 22.2548C10.8354 22.9485 11.4085 23.3077 11.9224 23.6798C12.7415 24.2721 13.6011 24.8065 14.4232 25.3961C16.893 27.17 19.3409 28.9729 21.82 30.7373C24.0593 32.3323 26.3329 33.8823 28.5814 35.4702C29.7618 36.3068 30.9142 37.1856 32.0852 38.0385C34.3089 39.6581 36.5481 41.2598 38.7594 42.893C40.3758 44.0857 41.9642 45.3166 43.565 46.5305C43.6802 46.5986 43.7954 46.6666 43.9138 46.7341C43.7985 46.6654 43.6833 46.5961 43.5681 46.5271C41.687 46.33 40.273 45.1136 38.6629 44.3204C34.1096 42.0755 29.55 39.8426 25.0154 37.5641C22.3059 36.2026 19.6368 34.7546 16.9397 33.3657C15.7251 32.7404 14.4793 32.174 13.2584 31.5653C11.368 30.6252 9.47755 29.6842 7.60266 28.7188C6.94551 28.3806 6.68699 28.765 6.32883 29.4245C7.84559 30.2549 9.3373 31.1384 10.8883 31.9023C13.0186 32.9514 15.233 33.8385 17.3445 34.9225C21.6581 37.1356 25.9123 39.4634 30.2196 41.6861C32.9198 43.0784 35.6854 44.3392 38.3981 45.7087C39.9989 46.5169 41.5499 47.4225 43.1227 48.2844C43.3843 48.3257 43.646 48.367 43.9075 48.4082C43.8671 48.5007 43.8266 48.5927 43.7861 48.6855C43.565 48.5512 43.3438 48.4166 43.1227 48.2826C42.6929 48.2176 42.2445 48.2105 41.8396 48.0789C37.9995 46.8361 34.175 45.5491 30.3287 44.3207C26.1428 42.9839 21.9383 41.7111 17.7525 40.382C14.3858 39.3134 11.0285 38.2076 7.67428 37.1085C6.71502 36.7944 5.76506 36.4518 4.81518 36.1111C4.08641 35.849 3.59438 36.0237 3.32031 36.8406C3.61617 37.0171 3.8404 37.2167 4.10516 37.3023C8.21308 38.6416 12.3241 39.9692 16.4383 41.2925C21.4431 42.9031 26.448 44.5157 31.4592 46.1088C33.5178 46.7634 35.6107 47.3175 37.6538 48.0155C38.9182 48.448 40.1204 49.0653 41.3475 49.5994C41.7554 49.633 42.1635 49.6671 42.7926 49.7195C42.0888 50.0851 41.6403 50.2499 41.3475 49.5991C40.6094 49.5877 39.8339 49.7198 39.1394 49.5402C36.3208 48.8117 33.4026 48.8056 30.5591 48.2724C28.5721 47.8997 26.5757 47.5658 24.5794 47.2328C22.2311 46.8407 19.8828 46.4378 17.5252 46.098C16.0147 45.8799 14.4824 45.8066 12.9688 45.5935C11.9006 45.4432 10.8541 45.1524 9.79203 44.9509C7.87981 44.5887 5.9707 44.1824 4.03969 43.9264C3.21751 43.8174 2.30808 43.6899 1.47963 44.1082C1.58552 45.0316 2.13993 45.1804 2.87178 45.2355C4.32003 45.3446 5.79004 45.4179 7.204 45.7219C10.524 46.4362 13.8533 47.0366 17.2293 47.4718C20.1663 47.8507 23.1001 48.3171 26.0307 48.7618C27.2391 48.9451 28.4164 49.316 29.6217 49.5165C31.7612 49.8723 33.9102 50.1726 36.0592 50.4785C38.4947 50.8253 40.9302 51.1518 43.3687 51.4873C43.3594 51.6025 43.35 51.7177 43.3408 51.8329H1C1.03426 52.3473 1.05296 52.6741 1.07474 53H106C105.396 52.4191 105.122 51.9496 104.739 51.84C104.194 51.6829 103.571 51.7817 102.979 51.7817C90.3437 51.7805 77.7054 51.7817 65.0702 51.7771C64.4597 51.7768 63.8462 51.7275 62.7592 51.6801C64.0237 51.3751 64.7805 51.1426 65.556 51.016C66.8423 50.8053 68.141 50.6433 69.4366 50.4963C71.0249 50.3164 72.6257 50.2182 74.211 49.9989C75.2761 49.8513 76.3132 49.5224 77.3722 49.3338C79.437 48.9664 81.5143 48.6814 83.573 48.2856C85.1582 47.9807 86.759 47.9496 88.3505 47.7765C90.5618 47.5359 92.7294 46.9263 94.9313 46.557C97.8557 46.066 100.796 45.6603 103.726 45.2038C104.356 45.1056 104.782 44.8018 104.642 43.9076C103.814 43.9076 103.001 43.8051 102.222 43.9252C98.7246 44.4655 95.2148 44.9663 91.7577 45.7028C90.4434 45.9822 89.1478 45.9548 87.8553 46.1319C86.2857 46.3466 84.7315 46.674 83.1743 46.9627C81.8974 47.1986 80.6267 47.4694 79.3498 47.6887C77.2818 48.0432 75.2201 48.4911 73.1365 48.6753C70.318 48.9248 67.5461 49.3995 64.7867 49.9869C64.4535 50.058 64.0735 49.9274 63.4257 49.8606C68.7483 48.1402 73.7532 46.5213 78.7581 44.9063C82.5296 43.6899 86.3043 42.4898 90.0696 41.2608C94.0468 39.963 98.0177 38.6468 101.982 37.314C102.328 37.1976 102.611 36.8963 102.92 36.6826C102.428 35.9645 101.945 35.8912 101.297 36.1574C99.9611 36.7078 98.6219 37.2681 97.2453 37.7003C92.91 39.0608 88.5498 40.3404 84.2177 41.7019C82.6324 42.1996 81.1219 42.93 79.5304 43.3954C74.5442 44.8536 69.5393 46.2419 64.6932 48.1298C63.9769 48.4086 63.2077 48.5459 62.4603 48.7489C63.4226 47.9924 64.5033 47.547 65.5435 47.0203C67.9914 45.778 70.4051 44.4648 72.8593 43.238C77.2133 41.0639 81.6015 38.958 85.9492 36.7731C88.5965 35.4412 91.194 34.0027 93.8256 32.6357C95.3112 31.8634 96.8124 31.1153 98.3291 30.4034C99.0766 30.0532 99.6932 29.6546 99.9579 28.3368C96.5477 29.7125 93.617 31.2881 90.6708 32.8633C87.6685 34.4687 84.554 35.8706 81.4988 37.3815C78.431 38.8994 75.3726 40.4377 72.3112 41.9741C69.3089 43.4829 66.3657 45.1145 63.2264 46.3953C63.8399 45.6668 64.5563 45.1068 65.2913 44.5696C68.3901 42.3004 71.436 39.9507 74.6127 37.7939C78.9885 34.8218 83.1152 31.5071 87.5657 28.6344C89.8174 27.1817 91.6798 25.1925 94.0811 23.9179C94.6728 23.6037 95.0715 22.9297 95.6227 22.3549C94.8815 21.7947 94.4455 21.9755 93.916 22.3574C90.8016 24.6032 87.6809 26.8411 84.5198 29.0259C82.5545 30.3849 80.7482 31.9417 78.6709 33.1701C76.8053 34.2728 75.1546 35.724 73.4043 37.0152C70.4269 39.2105 67.4589 41.4206 64.4566 43.5796C63.7683 44.0721 62.9492 44.3805 62.1893 44.7732C62.0429 44.9195 61.8933 45.0655 61.747 45.2119C61.5975 45.3578 61.4511 45.5038 61.3017 45.6501C61.2332 45.762 61.1615 45.8738 61.0899 45.9859C61.1615 45.875 61.2332 45.7641 61.3048 45.6536C61.4543 45.5069 61.6007 45.3606 61.7501 45.2146C61.8965 45.0683 62.046 44.922 62.1923 44.7757C62.563 44.3349 62.9025 43.8642 63.3105 43.4589C65.6464 41.1277 68.007 38.8206 70.3429 36.4891C71.8129 35.0223 73.2362 33.5102 74.7124 32.0495C76.1482 30.627 77.6493 29.2686 79.0757 27.836C80.2374 26.6698 81.2807 25.3887 82.4581 24.2404C84.7191 22.0331 87.0456 19.8892 89.3284 17.704C89.6368 17.4093 89.8984 17.0479 90.1039 16.6764C90.188 16.5268 90.1475 16.1664 90.0261 16.0786C89.8205 15.9261 89.425 15.7681 89.2599 15.8648C88.7679 16.1565 88.3162 16.5369 87.9082 16.9411C81.4863 23.2778 75.0674 29.6185 68.6641 35.9728C67.6488 36.981 66.8173 38.1558 65.6245 39.0143C65.0016 39.4622 64.606 40.2055 64.0704 40.7827C63.4413 41.4591 62.7468 42.0755 62.1394 42.7658C61.7813 43.1693 61.4543 43.5297 60.8594 43.4579C60.713 43.6039 60.5635 43.7506 60.4172 43.8966C60.3518 44.0105 60.2832 44.1242 60.2178 44.2378C60.2832 44.1248 60.3518 44.0111 60.4172 43.8981C60.5666 43.7521 60.713 43.6058 60.8626 43.4595C60.9809 43.1299 61.0307 42.7498 61.23 42.4787C63.7153 39.1104 66.2318 35.7631 68.7234 32.401C71.1308 29.1562 73.5196 25.8976 75.924 22.651C77.5995 20.3901 79.3093 18.1547 80.963 15.879C82.1403 14.2603 83.2491 12.5939 84.3983 10.9358C83.492 10.146 82.9469 10.7417 82.5265 11.3097C80.2903 14.3194 78.1009 17.3624 75.8803 20.3836C74.1705 22.7113 72.4326 25.0182 70.7228 27.3453C68.8884 29.8415 67.0571 32.3424 65.2477 34.8569C63.815 36.8477 62.4416 38.88 60.9871 40.8532C60.6103 41.3621 60.0216 41.7172 59.5296 42.1433M47.729 43.5679C47.8505 43.6122 47.8068 43.559 47.7632 43.5057C47.7103 43.5574 47.6605 43.6092 47.6106 43.6609C47.6605 43.7071 47.7072 43.7786 47.7664 43.7909C47.8006 43.7986 47.8567 43.717 47.729 43.5679ZM47.729 43.5679C47.4082 43.1668 47.2618 42.8751 47.1123 42.5831C47.0469 42.3053 47.0376 42 46.9068 41.7546C45.1316 38.3582 43.3065 34.9884 41.5686 31.5739C40.3633 29.2104 39.3387 26.7582 38.1272 24.3984C36.025 20.2924 33.8324 16.2311 31.6896 12.1442C30.7896 10.4244 29.9238 8.68715 28.9178 6.71793C29.0798 6.59966 29.3632 6.39173 29.6154 6.2069C29.8304 6.26543 30.039 6.26083 30.0888 6.34583C31.9388 9.5912 33.5863 12.9361 35.2245 16.2936C37.3455 20.6396 39.7965 24.8287 42.07 29.102C42.506 29.922 42.7365 30.8494 43.1663 31.6737C43.8359 32.9529 44.6395 34.1629 45.3029 35.444C46.424 37.6116 47.4829 39.8124 48.7941 42.4556C48.7941 41.5312 48.9436 41.0165 48.7692 40.6521C47.2213 37.395 46.4676 33.8789 45.3247 30.4903C43.9574 26.4274 42.5217 22.3824 41.3101 18.2733C40.3197 14.9167 38.7345 11.757 38.1396 8.26394C37.9029 6.88304 37.0745 5.60811 36.6136 4.25249C36.5139 3.95924 36.8347 3.52738 37.0153 2.99387C38.2985 4.36306 38.6411 5.93032 39.1269 7.38945C40.6654 12 42.0856 16.6481 43.5867 21.2698C44.9353 25.4174 46.3306 29.5502 47.7134 33.687C48.5948 36.3249 49.4918 38.9583 50.532 41.5685C50.2143 37.0922 49.1772 32.7164 48.682 28.2644C48.1868 23.7987 47.1808 19.3899 46.4521 14.9469C45.7264 10.511 45.0661 6.06429 44.3561 1.46791C44.8762 1.42508 45.2094 1.39798 45.7046 1.35702C47.8566 14.8129 49.9963 28.1868 52.1359 41.5608C52.2324 41.5552 52.3322 41.5494 52.4286 41.5439V1H53.7772V43.2974C53.852 43.2996 53.9298 43.3017 54.0046 43.3039C54.2163 41.7749 54.4063 40.2418 54.6492 38.7177C55.1133 35.8222 55.6178 32.9332 56.0912 30.0399C56.3591 28.4166 56.5989 26.789 56.8636 25.1654C57.3681 22.062 57.8851 18.9596 58.3991 15.8571C58.6201 14.516 58.9627 13.1822 59.0437 11.8334C59.1558 9.96085 59.5171 8.14625 59.8939 6.31996C60.1556 5.05797 60.2489 3.76149 60.414 2.47977C60.495 1.83692 60.7691 1.39184 61.6412 1.41709C61.6816 1.90899 61.8187 2.41231 61.747 2.88513C61.5227 4.36674 61.1895 5.83175 60.959 7.31304C60.7411 8.73182 60.6539 10.1715 60.4172 11.5866C59.8939 14.6854 59.2898 17.7706 58.7665 20.869C58.5267 22.2835 58.3991 23.7167 58.2122 25.1405C57.91 27.4146 57.6671 29.6977 57.281 31.958C56.9602 33.8533 56.3964 35.7086 56.0819 37.6048C55.8202 39.1976 55.7611 40.8237 55.7456 42.4353C59.9843 29.5455 64.223 16.6549 68.4773 3.76856C68.5396 3.57911 68.7545 3.43959 68.9507 3.22181C69.6484 3.39092 69.9442 3.92845 69.6826 4.48287C68.5427 6.89166 68.2375 9.55456 67.1599 12.0028C66.101 14.4097 65.5902 17.0461 64.7525 19.555C63.5347 23.2162 62.0148 26.7952 61.0463 30.5171C60.1992 33.7763 58.6077 36.7907 58.0782 40.1439C57.9505 40.953 57.1937 41.6449 57.3121 42.5816M57.3121 42.5816C57.1813 42.8012 57.0474 43.0208 56.9135 43.2405C57.0038 43.2787 57.0972 43.3168 57.1875 43.3553C57.2312 43.0975 57.2716 42.8394 57.3121 42.5816ZM57.3121 42.5816C57.5955 42.1836 57.9287 41.8121 58.1499 41.3828C59.5887 38.5646 60.9839 35.7237 62.4322 32.9098C63.8119 30.23 65.2694 27.5886 66.6429 24.9051C69.4677 19.3846 72.2489 13.8432 75.0706 8.32214C75.4568 7.56686 75.9799 6.88028 76.525 6.02857C76.8987 6.39111 77.1043 6.59257 77.4313 6.90861C75.6747 10.2073 73.9432 13.445 72.2271 16.6891C71.9592 17.1952 71.7631 17.7385 71.5077 18.2514C71.0623 19.1496 70.6014 20.0423 70.1311 20.9278C69.8913 21.3733 69.586 21.7832 69.3587 22.2339C67.0945 26.7391 64.8427 31.2517 62.5817 35.7581C61.6785 37.5533 60.7504 39.335 59.8535 41.1323C59.6978 41.4453 59.6355 41.8047 59.5296 42.1433M59.5296 42.1433C58.9658 42.3573 58.5952 42.6786 58.8786 43.8485C59.2057 42.9906 59.3676 42.5671 59.5296 42.1433ZM58.9783 45.8843C58.9441 45.8405 58.9098 45.7968 58.8755 45.7536C58.835 45.79 58.7665 45.8227 58.7603 45.8639C58.7541 45.9006 58.8226 45.9465 58.8568 45.988C58.8973 45.9536 58.9378 45.9191 58.9783 45.8843ZM48.3394 44.5643C48.3051 44.5197 48.2709 44.4747 48.2366 44.4301C48.193 44.4683 48.1245 44.5031 48.1182 44.5456C48.1152 44.5834 48.1806 44.63 48.2148 44.6731C48.2584 44.6368 48.2989 44.6007 48.3394 44.5643ZM49.2364 42.8095C49.199 42.7642 49.1647 42.719 49.1305 42.6737C49.1211 42.7581 49.1149 42.8428 49.1056 42.9275C49.1491 42.8884 49.1928 42.849 49.2364 42.8095ZM50.7562 43.3436C50.8465 43.3369 50.9368 43.3298 51.0272 43.3227C51.0023 42.9925 50.9774 42.6626 50.9493 42.3324C50.859 42.3389 50.7656 42.3453 50.6721 42.3521C50.7001 42.6826 50.7282 43.0131 50.7562 43.3436ZM62.1923 46.97C62.264 46.8576 62.3357 46.7446 62.4042 46.6322C62.3326 46.7437 62.2609 46.8545 62.1893 46.9654C62.1176 47.0763 62.0491 47.1869 61.9806 47.2975C62.0523 47.1885 62.1208 47.0791 62.1923 46.97Z" stroke="#FBD6CD"/>
</g>
</svg>
