<svg width="100%" height="100%" viewBox="0 0 48 48" fill="none" xmlns="http://www.w3.org/2000/svg">
<g id="wallet-02">
<path id="Icon" d="M32 16.0006V9.00194C32 7.33846 32 6.50672 31.6496 5.99558C31.3434 5.549 30.8693 5.24563 30.3355 5.15479C29.7246 5.05083 28.9694 5.39938 27.459 6.09647L9.71803 14.2846C8.37101 14.9063 7.6975 15.2172 7.20421 15.6993C6.76812 16.1255 6.43523 16.6457 6.23101 17.2203C6 17.8702 6 18.612 6 20.0956V30.0006M33 29.0006H33.02M6 22.4006L6 35.6006C6 37.8408 6 38.9609 6.43597 39.8166C6.81947 40.5692 7.43139 41.1812 8.18404 41.5647C9.03968 42.0006 10.1598 42.0006 12.4 42.0006H35.6C37.8402 42.0006 38.9603 42.0006 39.816 41.5647C40.5686 41.1812 41.1805 40.5692 41.564 39.8166C42 38.9609 42 37.8408 42 35.6006V22.4006C42 20.1604 42 19.0403 41.564 18.1847C41.1805 17.432 40.5686 16.8201 39.816 16.4366C38.9603 16.0006 37.8402 16.0006 35.6 16.0006L12.4 16.0006C10.1598 16.0006 9.03969 16.0006 8.18404 16.4366C7.43139 16.8201 6.81947 17.432 6.43597 18.1847C6 19.0403 6 20.1604 6 22.4006ZM34 29.0006C34 29.5529 33.5523 30.0006 33 30.0006C32.4477 30.0006 32 29.5529 32 29.0006C32 28.4483 32.4477 28.0006 33 28.0006C33.5523 28.0006 34 28.4483 34 29.0006Z" stroke="#D25130" stroke-width="2" stroke-linecap="round" stroke-linejoin="round"/>
</g>
</svg>
