<svg  viewBox="0 0 332 166" fill="none" xmlns="http://www.w3.org/2000/svg">
<path d="M183.322 143.284C183.214 143.145 183.105 143.005 182.997 142.867C182.869 142.983 182.652 143.088 182.633 143.219C182.613 143.336 182.83 143.483 182.938 143.616C183.066 143.506 183.194 143.395 183.322 143.284ZM149.683 139.071C149.574 138.928 149.466 138.785 149.358 138.642C149.22 138.764 149.003 138.875 148.983 139.011C148.974 139.132 149.181 139.28 149.289 139.418C149.427 139.302 149.555 139.187 149.683 139.071ZM152.519 133.469C152.401 133.324 152.292 133.18 152.184 133.035C152.154 133.305 152.135 133.575 152.105 133.845C152.243 133.721 152.381 133.595 152.519 133.469ZM157.324 135.174C157.61 135.152 157.895 135.13 158.181 135.107C158.102 134.053 158.024 133 157.935 131.946C157.649 131.966 157.354 131.987 157.058 132.009C157.147 133.064 157.236 134.119 157.324 135.174ZM193.484 146.751C193.711 146.392 193.938 146.031 194.154 145.672C193.928 146.028 193.701 146.382 193.475 146.736C193.248 147.09 193.031 147.443 192.815 147.796C193.041 147.448 193.258 147.099 193.484 146.751ZM127.575 155.144C123.695 153.439 119.894 151.469 115.896 150.088C109.436 147.86 102.818 146.091 96.309 144.001C80.4643 138.915 64.6393 133.768 48.8143 128.626C35.8056 124.402 22.8071 120.164 9.81821 115.888C8.98107 115.615 8.27207 114.978 7.33661 114.414C8.20319 111.806 9.75894 111.249 12.0632 112.086C15.0667 113.173 18.0703 114.267 21.1034 115.27C31.7093 118.778 42.3246 122.308 52.9699 125.719C66.205 129.962 79.4993 134.025 92.7344 138.293C104.896 142.215 116.989 146.323 129.131 150.29C130.411 150.71 131.829 150.733 133.188 150.94C133.887 151.368 134.586 151.798 135.286 152.227C135.414 151.931 135.542 151.637 135.67 151.342C134.842 151.21 134.015 151.078 133.188 150.946C128.215 148.195 123.311 145.304 118.249 142.724C109.672 138.352 100.927 134.327 92.3897 129.883C78.7704 122.787 65.3188 115.356 51.6799 108.291C45.0033 104.831 38.0017 101.999 31.2659 98.6495C26.3618 96.2109 21.6451 93.3908 16.8492 90.7397C17.9817 88.6344 18.7992 87.4072 20.877 88.4869C26.8052 91.5687 32.7826 94.5727 38.76 97.5738C42.6203 99.5169 46.5593 101.325 50.3999 103.321C58.9277 107.755 67.3672 112.378 75.9345 116.724C90.2725 123.998 104.689 131.126 119.086 138.292C124.178 140.824 128.648 144.707 134.596 145.337C134.961 145.557 135.325 145.778 135.689 145.997C135.315 145.782 134.951 145.565 134.586 145.347C129.525 141.472 124.502 137.543 119.392 133.735C112.4 128.522 105.32 123.409 98.2883 118.238C94.5858 115.515 90.9421 112.71 87.2098 110.039C80.1001 104.97 72.9113 100.022 65.8309 94.9307C57.9923 89.2981 50.2521 83.5428 42.443 77.8798C39.8433 75.9978 37.1254 74.2917 34.5356 72.4008C32.9106 71.213 31.0987 70.0664 30.8428 67.8519C33.5999 65.5382 35.5793 67.7939 37.3026 68.8245C41.0447 71.0546 44.4617 73.8198 47.987 76.3941C60.2374 85.3295 72.4681 94.2895 84.7184 103.215C94.9303 110.652 105.182 118.027 115.384 125.479C122.799 130.903 130.145 136.431 137.58 141.843C138.26 142.339 139.313 142.33 140.19 142.555C140.653 143.028 141.115 143.5 141.578 143.973C141.943 144.186 142.297 144.399 142.661 144.613C142.317 144.38 141.982 144.146 141.637 143.913C141.164 143.451 140.692 142.991 140.209 142.53C138.683 140.805 137.235 138.997 135.611 137.371C107.772 109.531 79.9031 81.7177 52.0542 53.8849C50.4589 52.2879 48.9718 50.578 47.4947 48.9821C48.8735 46.6211 50.4096 46.9761 51.7686 48.0489C53.226 49.1955 54.4669 50.6164 55.7864 51.934C82.6604 78.7639 109.525 105.603 136.408 132.414C138.033 134.03 139.875 135.434 141.608 136.936C142.071 137.404 142.533 137.872 143.006 138.34C143.361 138.562 143.715 138.783 144.07 139.005C143.715 138.785 143.361 138.564 143.006 138.343C142.533 137.877 142.061 137.412 141.598 136.947C141.224 135.895 141.076 134.681 140.446 133.817C134.892 126.217 129.259 118.679 123.656 111.123C119.825 105.966 115.935 100.854 112.183 95.6445C106.954 88.3964 101.902 81.0265 96.6439 73.7981C88.4212 62.4791 80.0902 51.2378 71.8084 39.9552C70.3116 37.9168 68.7064 35.9305 67.5049 33.7239C67.1308 33.0297 67.948 31.6934 68.2139 30.652C69.2578 30.9254 70.7547 30.8536 71.2569 31.5262C77.3131 39.6052 83.192 47.8119 89.1596 55.9509C96.8899 66.492 104.729 76.9566 112.39 87.547C116.28 92.9217 119.795 98.5728 123.656 103.971C130.056 112.928 136.586 121.799 143.134 130.655C143.774 131.53 144.907 132.051 145.813 132.735C146.275 133.67 146.748 134.606 147.753 135.89C148.137 136.031 147.999 135.861 147.861 135.691C147.693 135.856 147.536 136.022 147.378 136.187C147.536 136.334 147.684 136.562 147.871 136.602C147.979 136.626 148.156 136.366 147.753 135.89C146.738 134.61 146.275 133.678 145.803 132.746C145.596 131.859 145.566 130.885 145.153 130.101C139.54 119.259 133.769 108.501 128.274 97.6014C124.463 90.0564 121.223 82.2281 117.393 74.6949C110.746 61.5872 103.813 48.6222 97.0377 35.5756C94.1917 30.0857 91.4542 24.5397 88.2735 18.2534C88.7856 17.8758 89.6817 17.2121 90.4793 16.622C91.1588 16.8089 91.8186 16.7942 91.9761 17.0655C97.8256 27.4258 103.035 38.1037 108.215 48.8219C114.921 62.6955 122.671 76.0686 129.86 89.7101C131.238 92.3278 131.967 95.2885 133.326 97.9199C135.443 102.004 137.984 105.866 140.081 109.956C143.626 116.875 146.975 123.901 151.121 132.339C151.121 129.388 151.593 127.745 151.042 126.582C146.147 116.184 143.764 104.959 140.15 94.142C135.827 81.172 131.288 68.259 127.457 55.1416C124.325 44.4263 119.313 34.3395 117.432 23.1887C116.684 18.7805 114.064 14.7105 112.607 10.3829C112.292 9.4468 113.306 8.06818 113.877 6.36505C117.934 10.7359 119.017 15.7391 120.554 20.3971C125.418 35.1153 129.909 49.9536 134.655 64.7073C138.919 77.9477 143.331 91.141 147.703 104.347C150.49 112.768 153.326 121.174 156.616 129.507C155.611 115.217 152.332 101.248 150.766 87.0365C149.2 72.7804 146.019 58.7061 143.715 44.5227C141.421 30.362 139.333 16.1668 137.088 1.4937C138.732 1.35698 139.786 1.27048 141.352 1.13972C148.156 44.095 154.922 86.7887 161.687 129.482C161.992 129.465 162.307 129.446 162.613 129.428V0H166.877V135.026C167.113 135.033 167.359 135.04 167.595 135.047C168.265 130.166 168.866 125.272 169.634 120.406C171.101 111.163 172.696 101.941 174.193 92.7044C175.04 87.5222 175.798 82.3265 176.635 77.1434C178.231 67.2364 179.865 57.3325 181.49 47.4285C182.189 43.1471 183.273 38.8893 183.529 34.5834C183.883 28.6058 185.026 22.813 186.217 16.983C187.044 12.9543 187.34 8.81554 187.861 4.72388C188.118 2.67171 188.984 1.25087 191.742 1.33148C191.87 2.90179 192.303 4.50854 192.076 6.01791C191.367 10.7477 190.314 15.4244 189.585 20.1532C188.896 24.6823 188.62 29.2784 187.872 33.7957C186.217 43.6879 184.307 53.5368 182.652 63.428C181.894 67.9434 181.49 72.5188 180.899 77.0638C179.944 84.3236 179.176 91.6119 177.955 98.8275C176.941 104.878 175.158 110.8 174.164 116.854C173.336 121.938 173.15 127.129 173.1 132.274C186.503 91.1261 199.905 49.9752 213.357 8.83811C213.554 8.23332 214.233 7.78793 214.854 7.09269C217.06 7.63254 217.995 9.3485 217.168 11.1184C213.564 18.808 212.599 27.3088 209.191 35.1242C205.843 42.8078 204.228 51.2241 201.579 59.2333C197.729 70.9209 192.923 82.3462 189.861 94.2276C187.182 104.632 182.15 114.255 180.476 124.959C180.072 127.542 177.679 129.751 178.053 132.741C177.64 133.442 177.216 134.143 176.793 134.845C177.079 134.966 177.374 135.088 177.66 135.211C177.798 134.388 177.925 133.564 178.053 132.741C178.95 131.471 180.003 130.285 180.703 128.914C185.252 119.918 189.664 110.849 194.243 101.866C198.605 93.3111 203.214 84.8791 207.557 76.3124C216.488 58.6894 225.282 40.9995 234.204 23.3745C235.425 20.9635 237.079 18.7717 238.803 16.0528C239.985 17.2101 240.635 17.8532 241.669 18.8621C236.114 29.3924 230.639 39.7281 225.213 50.0844C224.366 51.7 223.746 53.4346 222.939 55.0719C221.53 57.9391 220.073 60.7888 218.586 63.6158C217.828 65.0377 216.863 66.3465 216.144 67.7851C208.985 82.1672 201.865 96.5728 194.715 110.959C191.86 116.689 188.925 122.377 186.089 128.115C185.597 129.114 185.4 130.261 185.065 131.342C183.282 132.025 182.111 133.051 183.007 136.786C184.041 134.047 184.553 132.695 185.065 131.342C186.621 129.982 188.482 128.848 189.674 127.224C194.272 120.925 198.615 114.437 203.145 108.082C208.866 100.055 214.657 92.0711 220.457 84.1023C225.863 76.6733 231.358 69.3092 236.765 61.8783C243.786 52.2339 250.709 42.5198 257.779 32.9117C259.108 31.0985 260.832 29.1967 263.697 31.718C260.064 37.0112 256.558 42.3309 252.836 47.4983C247.607 54.763 242.2 61.899 236.903 69.1165C229.3 79.4808 221.747 89.8833 214.135 100.242C206.257 110.974 198.3 121.66 190.442 132.413C189.811 133.278 189.654 134.492 189.28 135.544C188.807 136.011 188.344 136.478 187.872 136.944C187.665 137.305 187.448 137.668 187.241 138.028C187.448 137.666 187.665 137.303 187.872 136.939C188.334 136.473 188.807 136.005 189.27 135.539C191.151 135.768 192.185 134.617 193.317 133.329C195.237 131.126 197.433 129.158 199.422 126.999C201.116 125.156 202.367 122.783 204.337 121.353C208.108 118.613 210.737 114.862 213.948 111.644C234.194 91.3592 254.49 71.1176 274.796 50.8888C276.086 49.5986 277.514 48.3843 279.069 47.453C279.591 47.1443 280.842 47.6487 281.492 48.1355C281.876 48.4157 282.004 49.5662 281.738 50.0441C281.088 51.23 280.261 52.3834 279.286 53.3245C272.068 60.3001 264.712 67.1441 257.563 74.1905C253.84 77.8563 250.541 81.9459 246.868 85.6688C242.358 90.2422 237.611 94.5786 233.072 99.1196C228.404 103.782 223.904 108.61 219.256 113.292C211.87 120.735 204.406 128.1 197.02 135.542C195.73 136.836 194.656 138.338 193.484 139.745C193.022 140.212 192.549 140.68 192.086 141.147C191.614 141.613 191.151 142.08 190.678 142.548C190.452 142.901 190.225 143.255 189.999 143.609C190.225 143.251 190.452 142.894 190.668 142.537C191.141 142.07 191.604 141.604 192.076 141.138C192.539 140.671 193.012 140.205 193.475 139.738C195.878 138.484 198.467 137.499 200.644 135.927C210.137 129.035 219.521 121.98 228.936 114.972C234.47 110.85 239.689 106.217 245.588 102.697C252.156 98.7754 257.868 93.8058 264.082 89.4673C274.077 82.4927 283.944 75.3488 293.792 68.1795C295.466 66.9601 296.844 66.3829 299.188 68.1715C297.445 70.0064 296.185 72.158 294.313 73.1609C286.721 77.2299 280.832 83.5802 273.712 88.2175C259.64 97.388 246.592 107.969 232.757 117.458C222.712 124.343 213.081 131.843 203.283 139.088C200.959 140.802 198.694 142.59 196.754 144.916C206.68 140.827 215.986 135.618 225.479 130.802C235.159 125.897 244.83 120.987 254.53 116.141C264.19 111.318 274.037 106.843 283.53 101.717C292.846 96.6888 302.113 91.659 312.896 87.2676C312.059 91.4742 310.109 92.7467 307.745 93.8648C302.95 96.1372 298.203 98.5256 293.506 100.991C285.185 105.355 276.972 109.947 268.601 114.199C254.854 121.173 240.979 127.896 227.212 134.837C219.452 138.753 211.821 142.945 204.08 146.911C200.791 148.592 197.374 150.014 194.332 152.429C196.695 151.781 199.127 151.343 201.392 150.453C216.715 144.426 232.54 139.994 248.306 135.339C253.338 133.853 258.114 131.522 263.126 129.933C276.824 125.587 290.611 121.502 304.318 117.159C308.671 115.779 312.906 113.99 317.13 112.233C319.178 111.383 320.705 111.617 322.261 113.91C321.286 114.592 320.39 115.554 319.297 115.925C306.761 120.18 294.205 124.382 281.63 128.525C269.724 132.448 257.789 136.279 245.864 140.162C230.039 145.318 214.214 150.486 197.384 155.978C199.432 156.191 200.634 156.608 201.687 156.381C210.412 154.506 219.177 152.991 228.089 152.194C234.677 151.606 241.196 150.176 247.735 149.045C251.772 148.344 255.79 147.48 259.827 146.727C264.751 145.806 269.665 144.76 274.628 144.075C278.715 143.51 282.812 143.597 286.967 142.705C297.898 140.354 308.996 138.755 320.055 137.03C322.517 136.647 325.087 136.974 327.706 136.974C328.149 139.829 326.8 140.798 324.811 141.112C315.545 142.57 306.249 143.864 297.002 145.432C290.04 146.611 283.186 148.557 276.194 149.325C271.162 149.877 266.1 149.977 261.088 150.95C254.579 152.214 248.01 153.123 241.482 154.296C238.133 154.898 234.854 155.948 231.486 156.419C226.474 157.12 221.412 157.433 216.39 158.008C212.294 158.477 208.187 158.994 204.12 159.666C201.668 160.071 199.275 160.813 195.277 161.786C198.714 161.938 200.654 162.095 202.584 162.096C242.535 162.111 282.496 162.107 322.448 162.111C324.319 162.111 326.288 161.795 328.012 162.297C329.223 162.647 330.09 164.145 332 166H0.236331C0.167448 164.96 0.108313 163.916 0 162.274H133.877C133.907 161.906 133.936 161.539 133.966 161.171C126.255 160.1 118.555 159.058 110.854 157.951C104.059 156.974 97.2641 156.015 90.499 154.88C86.6881 154.24 82.9656 153.056 79.1448 152.47C69.8783 151.051 60.6019 149.562 51.3156 148.352C40.6409 146.963 30.114 145.046 19.6165 142.766C15.1456 141.796 10.4976 141.562 5.91838 141.213C3.60436 141.037 1.85135 140.562 1.51656 137.615C4.13603 136.279 7.01156 136.686 9.61121 137.034C15.7169 137.851 21.7533 139.148 27.7996 140.305C31.1576 140.948 34.4665 141.876 37.8443 142.356C42.6302 143.036 47.4751 143.271 52.2511 143.967C59.7056 145.051 67.1308 146.338 74.5559 147.589C80.8681 148.652 87.1804 149.718 93.4631 150.908C102.454 152.61 111.681 152.63 120.593 154.955C122.789 155.529 125.241 155.107 127.575 155.143C128.501 157.221 129.919 156.695 132.144 155.528C130.155 155.361 128.865 155.251 127.575 155.144Z" fill="#EF8367"/>
</svg>
