<svg width="203" height="227" viewBox="0 0 203 227" fill="none" xmlns="http://www.w3.org/2000/svg">
<path d="M0.997666 -36.9246L7.14894 -36.9246C30.4671 -36.9246 53.789 -37.1555 77.1016 -36.8091C86.2664 -36.6733 95.3903 -35.3244 104.292 -32.6499C114.041 -29.7213 123.645 -26.6141 132.629 -21.6794C141.249 -16.9439 149.583 -11.8845 156.812 -5.14666C160.064 -2.11753 163.689 0.549523 166.701 3.79183C173.372 10.9719 179.706 18.4842 184.412 27.1377C188.024 33.7815 191.879 40.4077 194.462 47.4658C197.597 56.0337 200.603 64.6585 201.815 73.9293C203.443 86.3819 203.118 98.8215 202.468 111.178C201.799 123.871 197.82 136.047 192.58 147.707C189.247 155.121 185.482 162.283 180.791 168.951C171.992 181.458 161.779 192.532 149.344 201.6C141.064 207.64 132.32 212.837 122.92 216.743C115.476 219.837 107.772 222.856 99.8922 224.203C92.139 225.529 84.3242 227.095 76.2681 226.996C53.14 226.711 30.0066 226.907 6.87396 226.895C5.06226 226.894 3.24954 226.746 0.0876713 226.607C1.89937 224.992 2.63421 223.857 3.60955 223.584C4.9988 223.196 6.56618 223.419 8.05714 223.419C30.6294 223.41 53.2036 223.611 75.7721 223.283C82.9051 223.18 90.0391 221.802 97.1377 220.768C106.88 219.348 116.048 215.768 124.886 211.763C133.263 207.966 141.297 203.226 148.575 197.475C153.506 193.578 158.702 189.829 162.862 185.193C168.755 178.624 174.833 172.101 179.181 164.271C180.881 161.211 182.975 158.37 184.7 155.323C190.287 145.453 193.706 134.735 196.508 123.835C197.509 119.946 197.324 115.758 198.282 111.854C200.041 104.678 199.333 97.4363 199.225 90.2461C199.032 77.3056 196.84 64.7143 192.184 52.4982C188.215 42.0852 183.542 32.1153 177.204 22.9525C170.436 13.165 162.593 4.42855 153.339 -3.19829C146.877 -8.52207 140.139 -13.3515 132.908 -17.4103C123.578 -22.6456 113.509 -26.2556 103.172 -29.0567C93.6598 -31.6343 83.9709 -32.5522 74.1207 -32.5C52.2953 -32.3855 30.47 -32.4657 8.64365 -32.4684C6.42259 -32.4684 4.06357 -32.098 2.23411 -33.6898C1.61874 -34.2242 1.55249 -35.3896 0.997666 -36.9246Z" fill="#EF8367"/>
<path d="M0.240495 -14.0272C1.97486 -15.3956 2.76751 -16.4112 3.77546 -16.7175C4.97549 -17.0815 6.36018 -16.8533 7.66555 -16.8543C28.9315 -16.8571 50.1973 -16.7835 71.4623 -16.8831C83.3918 -16.939 94.9363 -14.9953 106.227 -11.214C122.656 -5.71148 137.136 2.92442 149.257 15.3323C153.401 19.5753 157.428 23.9552 161.223 28.5101C163.446 31.1808 165.278 34.2239 166.992 37.2652C173.087 48.0822 178.175 59.3396 180.83 71.5324C181.685 75.4635 182.221 79.4962 182.499 83.5102C182.793 87.7746 182.433 92.0818 182.664 96.3538C183.331 108.724 180.842 120.535 176.855 132.155C172.425 145.07 165.609 156.55 156.889 167.024C148.315 177.322 138.196 185.603 126.583 192.318C117.713 197.446 108.462 201.531 98.5476 203.8C91.766 205.353 84.8827 206.815 77.8131 206.804C53.9354 206.768 30.0587 206.808 6.1811 206.793C4.58663 206.792 2.99306 206.575 -9.02414e-07 206.355C1.96462 204.789 2.75625 203.725 3.75772 203.466C5.16006 203.103 6.71731 203.323 8.20918 203.323C30.0345 203.316 51.8608 203.277 73.6852 203.334C80.9339 203.353 87.943 201.743 95.0359 200.651C102.966 199.43 110.385 196.441 117.44 193.003C125.36 189.145 133.23 184.899 139.674 178.58C142.71 175.603 146.269 173.134 149.161 170.035C159.348 159.119 167.383 146.822 172.418 132.672C174.392 127.128 176.421 121.62 177.16 115.733C177.777 110.822 178.706 105.939 179.089 101.012C179.709 93.0454 178.824 85.1067 177.962 77.1931C177.684 74.6471 177.162 72.103 176.494 69.6278C172.404 54.5017 165.687 40.6174 156.202 28.1387C153.993 25.2315 151.254 22.6762 148.508 20.2428C146.168 18.1697 144.484 15.5883 142.077 13.4901C129.866 2.84342 115.835 -4.15966 100.503 -8.95655C93.5721 -11.1246 86.5071 -11.8638 79.3031 -12.4232C54.5658 -14.3483 29.8032 -12.8989 5.05937 -13.4053C3.84068 -13.4296 2.6266 -13.7097 0.240495 -14.0272Z" fill="#EF8367"/>
<path d="M0.691893 185.024C2.22018 184.272 3.23735 183.469 4.35445 183.292C5.99269 183.032 7.70179 183.218 9.38015 183.218C31.2055 183.215 53.0337 183.418 74.8544 183.112C84.437 182.978 93.8005 181.154 102.796 177.355C110.008 174.309 116.83 170.736 123.07 166.062C132.059 159.329 139.583 151.221 145.613 141.74C151.118 133.087 154.818 123.689 156.862 113.684C158.82 104.095 159.763 94.519 158.179 84.6236C157.273 78.9675 156.494 73.3905 154.597 67.967C150.978 57.6247 145.857 48.2479 139.009 39.5664C126.932 24.2494 110.968 15.2467 92.8232 9.51521C89.1896 8.36647 85.2184 8.16533 81.3767 7.80694C56.478 5.48062 31.5152 7.26707 6.58763 6.68993C4.8123 6.64896 2.75525 7.31267 1.40703 4.81505C2.24248 4.30679 3.03412 3.53323 3.94878 3.34055C5.20106 3.07709 6.54563 3.24371 7.85105 3.24371C29.3034 3.24371 50.7559 3.31262 72.2073 3.20837C78.9059 3.17485 85.5186 3.54435 91.9365 5.52345C100.205 8.07225 108.363 10.6574 116.017 15.082C122.509 18.8353 128.06 23.635 133.874 28.1368C137.183 30.7004 139.671 34.3487 142.424 37.5985C146.742 42.6951 150.248 48.3829 153.221 54.3043C157.609 63.0418 160.803 72.3134 162.206 81.9892C162.974 87.2841 162.217 92.78 162.493 98.168C163.151 111.076 159.366 123.095 154.135 134.454C148.69 146.281 140.672 156.619 130.647 165.13C119.077 174.953 105.816 181.663 91.0601 185.231C87.1467 186.177 83.0188 186.267 78.9795 186.663C55.5681 188.957 32.0923 187.118 8.65385 187.693C6.07567 187.757 3.41365 188.021 0.691893 185.024Z" fill="#EF8367"/>
<path d="M1.39124 23.6499C3.10784 23.5419 4.73304 23.351 6.35831 23.3501C29.476 23.3408 52.5937 23.4097 75.7114 23.3343C82.4808 23.312 88.8922 24.8739 95.0639 27.3287C100.706 29.5731 106.205 32.1824 111.197 35.7655C119.889 42.0053 127.178 49.4729 132.538 58.7912C137.26 66.9988 140.953 75.7847 141.931 85.0546C143.109 96.2132 142.899 107.507 138.523 118.363C135.959 124.721 133.436 130.947 129.351 136.549C124.853 142.717 119.828 148.309 113.679 152.815C106.478 158.091 98.6304 162.195 89.9868 164.567C86.6403 165.485 83.1783 166.151 79.7255 166.493C55.0292 168.934 30.2601 166.978 5.53117 167.604C3.80154 167.647 2.14087 167.597 1.32591 165.553C1.57393 163.847 2.71989 163.155 4.39455 163.127C5.69997 163.104 7.00534 163.117 8.30979 163.116C30.8681 163.11 53.4282 163.214 75.9856 163.036C83.5877 162.976 90.8158 160.896 97.8743 157.919C108.055 153.622 116.334 146.916 123.45 138.726C128.049 133.435 131.383 127.292 134.314 120.877C139.44 109.666 139.819 97.7807 138.587 86.0477C137.494 75.6292 134.005 65.5931 127.305 57.0718C124.914 54.0315 122.669 50.8739 120.223 47.8783C115.688 42.3264 109.752 38.264 103.566 35.1111C96.5988 31.5597 89.2596 28.7027 81.1558 27.6722C73.1537 26.6547 65.229 26.9294 57.2745 26.8512C40.8703 26.6892 24.4632 26.8037 8.0571 26.7981C6.56615 26.7981 5.05938 26.88 3.58982 26.692C2.15669 26.5076 1.34554 25.5815 1.39124 23.6499Z" fill="#EF8367"/>
<path d="M1.18044 44.6564C2.84674 42.7863 4.7153 42.4028 6.83659 42.4055C27.7174 42.4391 48.6057 42.0984 69.4772 42.549C82.1154 42.8217 93.5441 47.0209 103.437 55.4334C112.983 63.5518 118.753 73.4732 121.122 85.6959C124.605 103.677 119.073 118.796 106.912 131.857C100.329 138.928 92.0969 143.436 82.7689 145.798C79.2275 146.696 75.524 147.393 71.8893 147.418C50.0761 147.568 28.2629 147.502 6.4496 147.486C4.49243 147.484 2.2313 148.025 1.30815 145.208C2.90075 142.958 5.27934 143.001 7.67569 143.003C22.2179 143.016 36.761 143.009 51.3032 143.009C58.2013 143.009 65.0994 142.998 71.9975 143.008C87.6632 143.03 99.4547 135.783 108.764 123.687C113.851 117.078 116.102 109.522 117.728 101.462C120.167 89.3693 116.406 78.7217 110.479 68.8561C105.585 60.7107 98.112 55.048 89.2251 50.9986C82.4099 47.8941 75.5594 46.8441 68.2613 46.8748C47.9399 46.9595 27.6176 46.9213 7.2962 46.8766C5.19078 46.872 2.70309 47.6977 1.18044 44.6564Z" fill="#EF8367"/>
<path d="M1.00143 64.4566C2.02053 63.7566 2.79918 62.89 3.73531 62.66C4.96897 62.3565 6.32664 62.5362 7.6311 62.5362C27.9552 62.5325 48.2803 62.4347 68.6035 62.5734C79.6444 62.6479 89.1533 67.0939 95.4267 75.9439C102.507 85.9333 104.646 97.1255 98.5214 108.818C94.7787 115.965 89.6708 121.72 82.217 124.848C78.7344 126.31 74.7576 127.244 70.9934 127.283C49.3657 127.51 27.7352 127.403 6.10566 127.392C4.4767 127.391 2.66579 127.798 1.44522 125.542C2.23497 125.029 2.99775 124.198 3.88363 124.034C5.32791 123.767 6.85335 123.922 8.34431 123.922C27.5495 123.919 46.7557 123.896 65.9609 123.939C70.2539 123.949 74.3519 123.043 78.421 121.839C90.9454 118.138 99.4986 104.11 97.1983 90.8C95.1004 78.6602 87.487 70.7709 75.5454 67.3499C73.8074 66.8519 71.854 67.0231 69.9993 67.0212C49.1157 67.0016 28.2322 67.0268 7.34859 66.9803C5.23656 66.9756 2.74597 67.8209 1.00143 64.4566Z" fill="#EF8367"/>
</svg>
