<svg width="26" height="26" viewBox="0 0 26 26" fill="none" xmlns="http://www.w3.org/2000/svg">
<path d="M1.33398 1.47656L3.66732 3.8099M24.6673 1.47656L22.334 3.8099M24.6673 24.8099L22.334 22.4766M1.33398 24.8099L3.66732 22.4766M1.33398 17.8099H3.08398M8.33398 1.47656V3.22656M24.6673 8.47656H22.9173M17.6673 24.8099V23.0599M20.0007 17.8099H24.084M17.6673 1.47656V6.14323M1.33398 8.47656H6.00065M8.33398 24.8099V20.1432M17.6673 13.1432C17.6673 15.7206 15.578 17.8099 13.0007 17.8099C10.4233 17.8099 8.33398 15.7206 8.33398 13.1432C8.33398 10.5659 10.4233 8.47656 13.0007 8.47656C15.578 8.47656 17.6673 10.5659 17.6673 13.1432Z" stroke="#D25130" strokeWidth="2" stroke-linecap="round" stroke-linejoin="round"/>
</svg>
