<svg width="22" height="22" viewBox="0 0 22 22" fill="none" xmlns="http://www.w3.org/2000/svg">
<path d="M20.2104 14.8906C19.5742 16.395 18.5792 17.7208 17.3123 18.7519C16.0454 19.7829 14.5452 20.488 12.9428 20.8053C11.3405 21.1227 9.68483 21.0427 8.12055 20.5724C6.55627 20.102 5.13103 19.2556 3.96942 18.1072C2.80782 16.9588 1.94522 15.5433 1.45704 13.9845C0.968859 12.4257 0.869965 10.771 1.169 9.16519C1.46804 7.55934 2.1559 6.05119 3.17245 4.77259C4.189 3.49399 5.50329 2.48388 7.0004 1.83056M20.2392 7.17372C20.6395 8.14019 20.8851 9.16192 20.9684 10.2014C20.989 10.4582 20.9993 10.5866 20.9483 10.7023C20.9057 10.7989 20.8213 10.8903 20.7284 10.9405C20.6172 11.0006 20.4783 11.0006 20.2004 11.0006H11.8004C11.5204 11.0006 11.3804 11.0006 11.2734 10.9461C11.1793 10.8981 11.1028 10.8216 11.0549 10.7276C11.0004 10.6206 11.0004 10.4806 11.0004 10.2006V1.80056C11.0004 1.52269 11.0004 1.38376 11.0605 1.27254C11.1107 1.17964 11.2021 1.09525 11.2987 1.05265C11.4144 1.00166 11.5428 1.01195 11.7996 1.03254C12.839 1.11588 13.8608 1.36144 14.8272 1.76176C16.0405 2.26431 17.1429 3.0009 18.0715 3.92949C19.0001 4.85808 19.7367 5.96047 20.2392 7.17372Z" stroke="#D25130" stroke-width="2" stroke-linecap="round" stroke-linejoin="round"/>
</svg>
