<svg width="28" height="29" viewBox="0 0 28 29" fill="none" xmlns="http://www.w3.org/2000/svg">
<path d="M10.4993 13.5626L12.8327 15.8959L18.0827 10.6459M23.3327 14.1459C23.3327 19.8724 17.0864 24.0374 14.8137 25.3633C14.5554 25.514 14.4262 25.5893 14.244 25.6284C14.1025 25.6587 13.8962 25.6587 13.7547 25.6284C13.5725 25.5893 13.4433 25.514 13.185 25.3633C10.9123 24.0374 4.66602 19.8724 4.66602 14.1459V8.56646C4.66602 7.6337 4.66602 7.16732 4.81857 6.76642C4.95334 6.41226 5.17233 6.09625 5.45662 5.84571C5.77843 5.56211 6.21511 5.39835 7.08849 5.07083L13.3439 2.72505C13.5865 2.63409 13.7077 2.58861 13.8325 2.57059C13.9432 2.5546 14.0555 2.5546 14.1662 2.57059C14.291 2.58861 14.4122 2.63409 14.6548 2.72505L20.9102 5.07083C21.7836 5.39835 22.2203 5.56211 22.5421 5.84571C22.8264 6.09625 23.0454 6.41226 23.1801 6.76642C23.3327 7.16732 23.3327 7.6337 23.3327 8.56646V14.1459Z" stroke="#D25130" strokeWidth="2" stroke-linecap="round" stroke-linejoin="round"/>
</svg>
