<svg width="40" height="41" viewBox="0 0 40 41" fill="none" xmlns="http://www.w3.org/2000/svg">
<path d="M23.5845 3.52598C23.5848 3.52584 23.5851 3.5257 23.5855 3.52556L23.5862 3.52526C23.5863 3.52521 23.5864 3.52516 23.5865 3.52511C23.9798 3.35805 24.2649 3.0428 24.4042 2.67199C32.4952 4.64787 38.5 11.945 38.5 20.6445C38.5 29.3099 32.5423 36.5838 24.4995 38.5935C24.4794 38.0105 24.1181 37.4679 23.5395 37.2449L23.5387 37.2446L23.5385 37.2445L23.5207 37.2374C23.5111 37.2336 23.4983 37.2284 23.4822 37.2218C23.468 37.216 23.4514 37.2092 23.4324 37.2012C23.3512 37.1672 23.2262 37.1136 23.0638 37.0395C22.7388 36.8913 22.2653 36.6621 21.6929 36.3465C20.5451 35.7138 19.0168 34.7433 17.4939 33.396C14.4521 30.7053 11.5 26.5834 11.5 20.6445C11.5 14.6978 14.4597 10.4442 17.5174 7.62174C19.0461 6.21065 20.5796 5.17798 21.7307 4.49908C22.3049 4.16048 22.78 3.91222 23.1063 3.75083C23.2694 3.6702 23.395 3.61142 23.4768 3.57406C23.5177 3.55539 23.5477 3.54208 23.5659 3.53408L23.5843 3.52606L23.5845 3.52598ZM1.5 20.6445C1.5 10.4862 9.68741 2.24019 19.8233 2.14536C18.5896 2.90018 17.038 3.98152 15.4826 5.41733C12.0403 8.59484 8.5 13.5912 8.5 20.6445C8.5 27.7056 12.0479 32.5838 15.5061 35.643C17.2332 37.1708 18.9549 38.2628 20.2446 38.9738C20.3473 39.0304 20.4475 39.0847 20.5447 39.1367C20.3638 39.1419 20.1822 39.1445 20 39.1445C9.78273 39.1445 1.5 30.8618 1.5 20.6445Z" stroke="black" strokeWidth="3" stroke-linecap="round" stroke-linejoin="round"/>
</svg>
